<svg width="88" height="104" viewBox="0 0 88 104" fill="none" xmlns="http://www.w3.org/2000/svg">
<path d="M44 1C63.33 1 79 16.67 79 36V91H9V36C9 16.67 24.67 1 44 1Z" fill="#808080" fill-opacity="0.25"/>
<path d="M79 91V92H80V91H79ZM9 91H8V92H9V91ZM44 1V2C62.7777 2 78 17.2223 78 36H79H80C80 16.1177 63.8823 0 44 0V1ZM79 36H78V91H79H80V36H79ZM79 91V90H9V91V92H79V91ZM9 91H10V36H9H8V91H9ZM9 36H10C10 17.2223 25.2223 2 44 2V1V0C24.1177 0 8 16.1177 8 36H9Z" fill="black"/>
<path d="M1 97C1 93.6863 3.68629 91 7 91H81C84.3137 91 87 93.6863 87 97C87 100.314 84.3137 103 81 103H7C3.68629 103 1 100.314 1 97Z" fill="#808080" fill-opacity="0.25" stroke="black" stroke-width="2"/>
</svg>
