<svg width="165" height="192" viewBox="0 0 165 192" fill="none" xmlns="http://www.w3.org/2000/svg">
<rect width="165" height="192" fill="#F5F5F5"/>
<path d="M165 0H0V192H165V0Z" fill="#F6F6F6"/>
<path d="M151 13H13V151H151V13Z" fill="white"/>
<path d="M147.5 16.5H16.5V147.5H147.5V16.5Z" fill="#F6F6F6" stroke="#AFAFAE" stroke-width="7"/>
<path d="M82.1 126.3C106.787 126.3 126.8 106.198 126.8 81.4C126.8 56.6024 106.787 36.5 82.1 36.5C57.4129 36.5 37.4 56.6024 37.4 81.4C37.4 106.198 57.4129 126.3 82.1 126.3Z" fill="#C9C9C9"/>
<path d="M82.2 105.1C95.1235 105.1 105.6 94.5339 105.6 81.5C105.6 68.4661 95.1235 57.9 82.2 57.9C69.2765 57.9 58.8 68.4661 58.8 81.5C58.8 94.5339 69.2765 105.1 82.2 105.1Z" fill="#010101"/>
<path d="M70.8 78.6C73.451 78.6 75.6 76.451 75.6 73.8C75.6 71.149 73.451 69 70.8 69C68.149 69 66 71.149 66 73.8C66 76.451 68.149 78.6 70.8 78.6Z" fill="white"/>
<path d="M22.9 173.1L25.3 178C25.4 178.1 25.4 178.2 25.4 178.3C25.4 178.5 25.3 178.6 25.2 178.8C25.1 179 24.9 179 24.7 179C24.4 179 24.2 178.9 24.1 178.6L21.5 173.4C21.4 173.4 21.4 173.4 21.2 173.4H18.4V178.3C18.4 178.8 18.2 179 17.7 179C17.2 179 17 178.8 17 178.3V165.7C17 165.2 17.2 165 17.7 165H21.2C22.4 165 23.4 165.4 24.2 166.2C25 167 25.4 168 25.4 169.2C25.4 171.1 24.5 172.4 22.9 173.1ZM18.4 166.4V172H21.2C22 172 22.6 171.7 23.2 171.2C23.7 170.7 24 170 24 169.2C24 168.4 23.7 167.8 23.2 167.2C22.7 166.7 22 166.4 21.2 166.4H18.4Z" fill="black"/>
<path d="M34.5 174.8V176.2C34.5 176.6 34.6 176.9 34.9 177.2C35.2 177.5 35.5 177.6 35.9 177.6H39.4C39.9 177.6 40.1 177.8 40.1 178.3C40.1 178.8 39.9 179 39.4 179H35.9C35.1 179 34.5 178.7 33.9 178.2C33.4 177.7 33.1 177 33.1 176.2V172.7C33.1 171.7 33.4 170.9 34.1 170.2C34.8 169.5 35.6 169.2 36.6 169.2C37.6 169.2 38.4 169.5 39.1 170.2C39.8 170.9 40.1 171.7 40.1 172.7V174.8H34.5ZM36.6 170.6C36 170.6 35.5 170.8 35.1 171.2C34.7 171.6 34.5 172.1 34.5 172.7V173.4H38.7V172.7C38.7 172.1 38.5 171.6 38.1 171.2C37.6 170.8 37.2 170.6 36.6 170.6Z" fill="black"/>
<path d="M50.6 170.6H49.9C49.4 170.6 49.2 170.4 49.2 169.9C49.2 169.4 49.4 169.2 49.9 169.2H50.6V165.7C50.6 165.2 50.8 165 51.3 165C51.8 165 52 165.2 52 165.7V169.2H54.1C54.6 169.2 54.8 169.4 54.8 169.9C54.8 170.4 54.6 170.6 54.1 170.6H52V178.3C52 178.8 51.8 179 51.3 179C50.8 179 50.6 178.8 50.6 178.3V170.6Z" fill="black"/>
<path d="M67.4 179C66.9 179 66.7 178.8 66.7 178.3V165.7C66.7 165.2 66.9 165 67.4 165C67.9 165 68.1 165.2 68.1 165.7V178.3C68.1 178.7 67.8 179 67.4 179Z" fill="black"/>
<path d="M85.5 175.6V165.7C85.5 165.2 85.7 165 86.2 165C86.7 165 86.9 165.2 86.9 165.7V178.3C86.9 178.8 86.7 179 86.2 179C85.9 179 85.7 178.9 85.6 178.7L79.9 168.4V178.3C79.9 178.8 79.7 179 79.2 179C78.7 179 78.5 178.8 78.5 178.3V165.7C78.5 165.2 78.7 165 79.2 165C79.5 165 79.7 165.1 79.8 165.4L85.5 175.6Z" fill="black"/>
<path d="M97.4 179C96.6 179 96 178.7 95.4 178.2C94.9 177.7 94.6 177 94.6 176.2C94.6 175.7 94.7 175.2 95 174.8C95.5 173.9 96.3 173.4 97.4 173.4H100.2V172C100.2 171.6 100.1 171.3 99.8 171C99.5 170.7 99.2 170.6 98.8 170.6H96C95.5 170.6 95.3 170.4 95.3 169.9C95.3 169.4 95.5 169.2 96 169.2H98.8C99.6 169.2 100.2 169.5 100.8 170C101.3 170.5 101.6 171.2 101.6 172V178.3C101.6 178.8 101.4 179 100.9 179H97.4ZM100.2 174.8H97.4C97 174.8 96.7 174.9 96.4 175.2C96.1 175.5 96 175.8 96 176.2C96 176.6 96.1 176.9 96.4 177.2C96.7 177.5 97 177.6 97.4 177.6H100.2V174.8Z" fill="black"/>
<path d="M115.7 171.2C117 172 117.7 173.2 117.7 174.8C117.7 176 117.3 176.9 116.5 177.8C115.7 178.6 114.7 179 113.5 179H110C109.5 179 109.3 178.8 109.3 178.3V165.7C109.3 165.2 109.5 165 110 165H113.5C114.5 165 115.3 165.3 116 166C116.7 166.7 117 167.5 117 168.5C117 169.6 116.6 170.5 115.7 171.2ZM110.7 166.4V170.6H113.5C114.1 170.6 114.6 170.4 115 170C115.4 169.6 115.6 169.1 115.6 168.5C115.6 167.9 115.4 167.4 115 167C114.6 166.6 114.1 166.4 113.5 166.4H110.7ZM110.7 172V177.6H113.5C114.3 177.6 114.9 177.3 115.5 176.8C116 176.3 116.3 175.6 116.3 174.8C116.3 174 116 173.4 115.5 172.8C115 172.3 114.3 172 113.5 172H110.7Z" fill="black"/>
<path d="M125.4 175.5V172.7C125.4 171.7 125.7 170.9 126.4 170.2C127.1 169.5 127.9 169.2 128.9 169.2C129.9 169.2 130.7 169.5 131.4 170.2C132.1 170.9 132.4 171.7 132.4 172.7V175.5C132.4 176.5 132.1 177.3 131.4 178C130.7 178.7 129.9 179 128.9 179C127.9 179 127.1 178.7 126.4 178C125.8 177.3 125.4 176.4 125.4 175.5ZM131 175.5V172.7C131 172.1 130.8 171.6 130.4 171.2C130 170.8 129.5 170.6 128.9 170.6C128.3 170.6 127.8 170.8 127.4 171.2C127 171.6 126.8 172.1 126.8 172.7V175.5C126.8 176.1 127 176.6 127.4 177C127.8 177.4 128.3 177.6 128.9 177.6C129.5 177.6 130 177.4 130.4 177C130.8 176.5 131 176 131 175.5Z" fill="black"/>
<path d="M145.2 174.1L147.7 177.9C147.8 178 147.8 178.2 147.8 178.3C147.8 178.8 147.6 179 147.1 179C146.8 179 146.7 178.9 146.5 178.7L144.3 175.4L142.1 178.7C142 178.9 141.8 179 141.5 179C141.3 179 141.1 178.9 141 178.8C140.9 178.7 140.8 178.5 140.8 178.3C140.8 178.2 140.8 178 140.9 177.9L143.4 174.1L140.9 170.3C140.8 170.2 140.8 170.1 140.8 169.9C140.8 169.4 141 169.2 141.5 169.2C141.8 169.2 141.9 169.3 142.1 169.5L144.3 172.8L146.5 169.5C146.6 169.3 146.8 169.2 147.1 169.2C147.6 169.2 147.8 169.4 147.8 169.9C147.8 170 147.8 170.2 147.7 170.3L145.2 174.1Z" fill="black"/>
</svg>
