<svg width="376" height="336" viewBox="0 0 376 336" fill="none" xmlns="http://www.w3.org/2000/svg">
<path d="M182.765 261.894C194.968 262.107 204.688 272.173 204.475 284.376C204.262 296.58 194.197 306.3 181.993 306.087C169.79 305.874 160.07 295.808 160.283 283.605C160.496 271.402 170.561 261.681 182.765 261.894Z" fill="#3D783F" stroke="#3D783F"/>
<path d="M181.597 328.8L181.985 306.587" stroke="#3D783F" stroke-width="2" stroke-miterlimit="10"/>
<path d="M203.17 329.224L180.573 328.829" stroke="#3D783F" stroke-width="2" stroke-miterlimit="10"/>
<g opacity="0.41">
<path d="M223.953 291.836C218.517 285.672 214.297 280.886 210.055 276.076C205.964 271.437 201.853 266.774 196.611 260.83L169.509 261.042L142.407 261.254C142.407 261.254 150.689 270.863 155.996 277.019C161.302 283.176 169.584 292.785 169.584 292.785L196.769 292.31L223.953 291.836Z" fill="#3D783F"/>
<path d="M155.996 277.019C150.689 270.863 142.407 261.254 142.407 261.254L169.509 261.042M155.996 277.019C161.302 283.176 169.584 292.785 169.584 292.785L196.769 292.31M155.996 277.019L210.055 276.076M210.055 276.076C214.297 280.886 218.517 285.672 223.953 291.836L196.769 292.31M210.055 276.076C205.964 271.437 201.853 266.774 196.611 260.83L169.509 261.042M196.769 292.31L169.509 261.042" stroke="black" stroke-width="0.5" stroke-dasharray="2 2"/>
</g>
<path d="M239.417 37.9739L195.907 260.82" stroke="black" stroke-opacity="0.9" stroke-width="0.4" stroke-miterlimit="10" stroke-dasharray="1 1"/>
<path d="M121.391 37.5336L169.92 261.774" stroke="black" stroke-opacity="0.9" stroke-width="0.4" stroke-miterlimit="10" stroke-dasharray="1 1"/>
<path d="M2.37418 37.6108L142.407 261.254" stroke="black" stroke-opacity="0.9" stroke-width="0.4" stroke-miterlimit="10" stroke-dasharray="1 1"/>
<path d="M120.317 176.574L169.961 292.778" stroke="black" stroke-opacity="0.9" stroke-width="0.4" stroke-miterlimit="10" stroke-dasharray="1 1"/>
<path d="M239.817 175.488L196.457 292.316" stroke="black" stroke-opacity="0.9" stroke-width="0.4" stroke-miterlimit="10" stroke-dasharray="1 1"/>
<path d="M359.316 174.402L223.453 291.844" stroke="black" stroke-opacity="0.9" stroke-width="0.4" stroke-miterlimit="10" stroke-dasharray="1 1"/>
<path d="M60.5959 107.105L155.667 276.025" stroke="black" stroke-opacity="0.9" stroke-width="0.4" stroke-miterlimit="10" stroke-dasharray="1 1"/>
<path d="M180.037 105.02L183.022 276.048" stroke="black" stroke-opacity="0.9" stroke-width="0.4" stroke-miterlimit="10" stroke-dasharray="1 1"/>
<path d="M297.595 104.969L210.158 275.074" stroke="black" stroke-opacity="0.9" stroke-width="0.4" stroke-miterlimit="10" stroke-dasharray="1 1"/>
<g opacity="0.41">
<path d="M359.429 174.968C335.735 147.607 317.34 126.366 298.849 105.014C281.017 84.4215 263.095 63.7264 240.245 37.34L120.92 37.2321L1.59567 37.1243C1.59567 37.1243 37.6882 79.7672 60.8146 107.091C83.9411 134.414 120.034 177.057 120.034 177.057L239.731 176.013L359.429 174.968Z" fill="#3D783F"/>
<path d="M60.8146 107.091C37.6882 79.7672 1.59567 37.1243 1.59567 37.1243L120.92 37.2321M60.8146 107.091C83.9411 134.414 120.034 177.057 120.034 177.057L239.731 176.013M60.8146 107.091L298.849 105.014M298.849 105.014C317.34 126.366 335.735 147.607 359.429 174.968L239.731 176.013M298.849 105.014C281.017 84.4215 263.095 63.7264 240.245 37.34L120.92 37.2321M239.731 176.013L120.92 37.2321" stroke="black" stroke-dasharray="2 2"/>
</g>
<path d="M7.36 335.08C6.72 335.08 6.25333 335 5.96 334.84C5.66667 334.653 5.52 334.4 5.52 334.08V308.32C5.52 307.44 5.96 307 6.84 307H14.72C17.8667 307 20.2133 307.667 21.76 309C23.3067 310.333 24.08 312.293 24.08 314.88C24.08 316.053 23.88 317.093 23.48 318C23.1067 318.907 22.5467 319.667 21.8 320.28C21.08 320.867 20.1867 321.28 19.12 321.52V321.68C19.84 321.893 20.4533 322.347 20.96 323.04C21.4933 323.733 21.96 324.6 22.36 325.64L25.52 333.56C25.6 333.72 25.6533 333.88 25.68 334.04C25.7067 334.173 25.72 334.28 25.72 334.36C25.72 334.6 25.5733 334.787 25.28 334.92C24.9867 335.027 24.5067 335.08 23.84 335.08H23.08C22.6267 335.08 22.24 335.013 21.92 334.88C21.6 334.747 21.3733 334.547 21.24 334.28L18.04 326.08C17.7467 325.36 17.4133 324.787 17.04 324.36C16.6667 323.907 16.1867 323.587 15.6 323.4C15.0133 323.213 14.2667 323.12 13.36 323.12H9.88V334.08C9.88 334.4 9.73333 334.653 9.44 334.84C9.17333 335 8.69333 335.08 8 335.08H7.36ZM9.88 319.56H14.8C16.5333 319.56 17.7733 319.227 18.52 318.56C19.2933 317.867 19.68 316.76 19.68 315.24C19.68 313.64 19.2933 312.48 18.52 311.76C17.7733 311.04 16.5333 310.68 14.8 310.68H9.88V319.56ZM41.1434 335.28C36.7168 335.28 33.4501 334.12 31.3434 331.8C29.2368 329.48 28.1834 325.867 28.1834 320.96C28.1834 316.187 29.2768 312.627 31.4634 310.28C33.6768 307.907 36.9301 306.72 41.2234 306.72C41.9168 306.72 42.5834 306.76 43.2234 306.84C43.8901 306.92 44.5168 307.027 45.1034 307.16C45.7168 307.293 46.2768 307.453 46.7834 307.64C47.2901 307.8 47.7301 307.987 48.1034 308.2C48.3968 308.387 48.6368 308.573 48.8234 308.76C49.0101 308.947 49.1034 309.133 49.1034 309.32C49.1034 309.507 49.0501 309.747 48.9434 310.04C48.8368 310.307 48.7034 310.587 48.5434 310.88C48.3834 311.147 48.2101 311.373 48.0234 311.56C47.8368 311.72 47.6501 311.8 47.4634 311.8C47.2501 311.8 46.9701 311.733 46.6234 311.6C46.3034 311.467 45.8901 311.307 45.3834 311.12C44.9034 310.933 44.3168 310.773 43.6234 310.64C42.9568 310.507 42.1701 310.44 41.2634 310.44C38.3034 310.44 36.1168 311.293 34.7034 313C33.2901 314.68 32.5834 317.347 32.5834 321C32.5834 323.48 32.8901 325.507 33.5034 327.08C34.1168 328.627 35.0634 329.773 36.3434 330.52C37.6234 331.24 39.2234 331.6 41.1434 331.6C41.8634 331.6 42.5701 331.547 43.2634 331.44C43.9834 331.333 44.6234 331.187 45.1834 331C45.7701 330.787 46.2101 330.56 46.5034 330.32L45.6234 332.68V323.08H40.5434C39.9301 323.08 39.6234 322.6 39.6234 321.64V320.88C39.6234 319.92 39.9301 319.44 40.5434 319.44H48.5034C49.3834 319.44 49.8234 319.88 49.8234 320.76V331.96C49.8234 332.36 49.7434 332.667 49.5834 332.88C49.4501 333.093 49.2234 333.28 48.9034 333.44C48.2634 333.813 47.5301 334.133 46.7034 334.4C45.8768 334.667 44.9968 334.88 44.0634 335.04C43.1301 335.2 42.1568 335.28 41.1434 335.28ZM68.0184 335.28C63.5918 335.28 60.3251 334.12 58.2184 331.8C56.1118 329.48 55.0584 325.867 55.0584 320.96C55.0584 316.187 56.1518 312.627 58.3384 310.28C60.5518 307.907 63.8051 306.72 68.0984 306.72C69.0051 306.72 69.8851 306.787 70.7384 306.92C71.6184 307.053 72.4184 307.227 73.1384 307.44C73.8851 307.653 74.4984 307.907 74.9784 308.2C75.2718 308.387 75.5118 308.573 75.6984 308.76C75.8851 308.947 75.9784 309.133 75.9784 309.32C75.9784 309.507 75.9251 309.747 75.8184 310.04C75.7384 310.307 75.6318 310.587 75.4984 310.88C75.3651 311.147 75.2051 311.373 75.0184 311.56C74.8584 311.72 74.6851 311.8 74.4984 311.8C74.2584 311.8 73.8718 311.68 73.3384 311.44C72.8051 311.2 72.1118 310.973 71.2584 310.76C70.4051 310.547 69.3651 310.44 68.1384 310.44C66.1651 310.44 64.5384 310.813 63.2584 311.56C61.9784 312.28 61.0184 313.427 60.3784 315C59.7651 316.547 59.4584 318.547 59.4584 321C59.4584 323.4 59.7651 325.387 60.3784 326.96C60.9918 328.507 61.9384 329.667 63.2184 330.44C64.4984 331.213 66.0984 331.6 68.0184 331.6C69.0318 331.6 69.9384 331.507 70.7384 331.32C71.5384 331.133 72.2318 330.933 72.8184 330.72C73.4318 330.507 73.9251 330.307 74.2984 330.12C74.6718 329.933 74.9384 329.84 75.0984 329.84C75.2851 329.84 75.4584 329.947 75.6184 330.16C75.8051 330.347 75.9651 330.573 76.0984 330.84C76.2318 331.107 76.3251 331.373 76.3784 331.64C76.4318 331.907 76.4584 332.093 76.4584 332.2C76.4584 332.52 76.3384 332.787 76.0984 333C75.8851 333.213 75.5518 333.453 75.0984 333.72C74.5651 334.013 73.9251 334.28 73.1784 334.52C72.4318 334.733 71.6184 334.907 70.7384 335.04C69.8584 335.2 68.9518 335.28 68.0184 335.28ZM90.1134 335C89.5001 335 89.1934 334.52 89.1934 333.56V333.04C89.1934 332.08 89.5001 331.6 90.1134 331.6H96.5934V309.4L98.2334 310.8L90.2734 312.12C89.9534 312.147 89.7001 312.067 89.5134 311.88C89.3534 311.667 89.2334 311.387 89.1534 311.04C89.1001 310.693 89.0734 310.387 89.0734 310.12C89.0734 309.693 89.1401 309.4 89.2734 309.24C89.4068 309.053 89.6068 308.933 89.8734 308.88L99.3534 306.88C99.6468 306.88 99.9401 306.973 100.233 307.16C100.553 307.347 100.713 307.573 100.713 307.84V331.6H106.673C107.287 331.6 107.593 332.08 107.593 333.04V333.56C107.593 334.52 107.287 335 106.673 335H90.1134Z" fill="black"/>
<path d="M18.4 15C18.1333 15 18 14.8 18 14.4V14.16C18 13.76 18.1333 13.56 18.4 13.56H21.88V2.08L22.56 2.66L18.44 3.36C18.32 3.37333 18.22 3.34 18.14 3.26C18.0733 3.18 18.02 3.07333 17.98 2.94C17.9533 2.79333 17.94 2.66 17.94 2.54C17.94 2.34 17.9667 2.20667 18.02 2.14C18.0867 2.06 18.18 2.00667 18.3 1.98L22.94 0.96C23.0867 0.96 23.2267 0.999999 23.36 1.08C23.4933 1.16 23.56 1.26 23.56 1.38V13.56H26.72C26.9867 13.56 27.12 13.76 27.12 14.16V14.4C27.12 14.8 26.9867 15 26.72 15H18.4Z" fill="black"/>
<path d="M134.34 15C134.26 15 134.193 14.9533 134.14 14.86C134.1 14.7667 134.067 14.6533 134.04 14.52C134.027 14.3733 134.02 14.24 134.02 14.12C134.02 14.0533 134.027 13.9867 134.04 13.92C134.053 13.8533 134.073 13.8067 134.1 13.78L139.82 6.6C139.993 6.38667 140.133 6.17333 140.24 5.96C140.36 5.73333 140.453 5.50667 140.52 5.28C140.587 5.05333 140.62 4.82667 140.62 4.6C140.62 3.89333 140.4 3.34 139.96 2.94C139.52 2.52667 138.933 2.32 138.2 2.32C137.573 2.32 137.047 2.4 136.62 2.56C136.193 2.70667 135.853 2.85333 135.6 3C135.36 3.14667 135.18 3.22 135.06 3.22C134.993 3.22 134.913 3.16667 134.82 3.06C134.727 2.95333 134.647 2.83333 134.58 2.7C134.513 2.55333 134.48 2.43333 134.48 2.34C134.48 2.22 134.587 2.08 134.8 1.92C135.027 1.74667 135.327 1.58667 135.7 1.44C136.073 1.28 136.487 1.14667 136.94 1.04C137.393 0.933333 137.86 0.879999 138.34 0.879999C139.513 0.879999 140.467 1.20667 141.2 1.86C141.933 2.5 142.3 3.37333 142.3 4.48C142.3 4.86667 142.247 5.24667 142.14 5.62C142.047 5.99333 141.907 6.36 141.72 6.72C141.533 7.06667 141.307 7.40667 141.04 7.74L136.36 13.56H142.06C142.327 13.56 142.46 13.76 142.46 14.16V14.4C142.46 14.8 142.327 15 142.06 15H134.34Z" fill="black"/>
<path d="M76.52 88.04C76.3067 88.04 76.1533 88 76.06 87.92C75.9667 87.84 75.92 87.7333 75.92 87.6V84.66H69.76C69.6933 84.66 69.6267 84.6 69.56 84.48C69.4933 84.36 69.44 84.22 69.4 84.06C69.3733 83.9 69.36 83.76 69.36 83.64C69.36 83.5867 69.36 83.54 69.36 83.5C69.3733 83.46 69.3867 83.4333 69.4 83.42L75.98 74.24C76.0467 74.1467 76.14 74.08 76.26 74.04C76.3933 73.9867 76.5267 73.96 76.66 73.96H76.98C77.1933 73.96 77.3467 74 77.44 74.08C77.5333 74.1467 77.58 74.2533 77.58 74.4V83.22H78.92C79.1867 83.22 79.32 83.42 79.32 83.82V84.06C79.32 84.2733 79.2867 84.4267 79.22 84.52C79.1667 84.6133 79.0667 84.66 78.92 84.66H77.58V87.6C77.58 87.7333 77.5333 87.84 77.44 87.92C77.3467 88 77.1933 88.04 76.98 88.04H76.52ZM70.94 83.78L70.64 83.22H75.92V78.38C75.92 78.1533 75.9267 77.8933 75.94 77.6C75.9533 77.3067 75.98 77.0533 76.02 76.84L75.32 76.5L76.34 76.24L70.94 83.78Z" fill="black"/>
<path d="M120.8 153.04C120.507 153.04 120.287 153.02 120.14 152.98C120.007 152.927 119.94 152.84 119.94 152.72C119.94 152.68 119.947 152.64 119.96 152.6C119.987 152.547 120.007 152.493 120.02 152.44L126.1 139.82L126.5 140.44H119.5C119.233 140.44 119.1 140.24 119.1 139.84V139.6C119.1 139.2 119.233 139 119.5 139H127.28C127.4 139 127.5 139.06 127.58 139.18C127.66 139.287 127.713 139.42 127.74 139.58C127.78 139.74 127.8 139.887 127.8 140.02C127.8 140.06 127.793 140.1 127.78 140.14C127.78 140.18 127.773 140.213 127.76 140.24L121.84 152.72C121.813 152.787 121.76 152.847 121.68 152.9C121.6 152.94 121.507 152.973 121.4 153C121.293 153.027 121.173 153.04 121.04 153.04H120.8Z" fill="black"/>
<path d="M247.34 153.12C246.54 153.12 245.813 152.98 245.16 152.7C244.507 152.42 243.987 151.987 243.6 151.4C243.213 150.813 243.02 150.067 243.02 149.16C243.02 148.387 243.133 147.76 243.36 147.28C243.587 146.8 243.887 146.407 244.26 146.1C244.647 145.793 245.06 145.52 245.5 145.28L246.86 145.84C246.473 146.04 246.12 146.28 245.8 146.56C245.48 146.827 245.22 147.153 245.02 147.54C244.833 147.927 244.74 148.4 244.74 148.96C244.74 149.56 244.853 150.067 245.08 150.48C245.32 150.88 245.64 151.18 246.04 151.38C246.44 151.58 246.873 151.68 247.34 151.68C247.82 151.68 248.253 151.58 248.64 151.38C249.04 151.18 249.36 150.88 249.6 150.48C249.84 150.067 249.96 149.56 249.96 148.96C249.96 148.44 249.84 148.02 249.6 147.7C249.373 147.367 249.073 147.1 248.7 146.9C248.327 146.687 247.913 146.5 247.46 146.34C247.007 146.18 246.547 146.013 246.08 145.84C245.627 145.653 245.213 145.42 244.84 145.14C244.467 144.86 244.16 144.5 243.92 144.06C243.693 143.607 243.58 143.033 243.58 142.34C243.58 141.58 243.747 140.947 244.08 140.44C244.427 139.92 244.887 139.533 245.46 139.28C246.047 139.013 246.687 138.88 247.38 138.88C248.087 138.88 248.727 139.013 249.3 139.28C249.887 139.533 250.353 139.92 250.7 140.44C251.047 140.947 251.22 141.58 251.22 142.34C251.22 142.9 251.12 143.387 250.92 143.8C250.72 144.213 250.453 144.56 250.12 144.84C249.787 145.12 249.413 145.34 249 145.5L247.52 145C247.893 144.8 248.227 144.58 248.52 144.34C248.827 144.087 249.073 143.8 249.26 143.48C249.447 143.147 249.54 142.767 249.54 142.34C249.54 141.633 249.327 141.12 248.9 140.8C248.473 140.48 247.967 140.32 247.38 140.32C246.793 140.32 246.293 140.48 245.88 140.8C245.467 141.12 245.26 141.633 245.26 142.34C245.26 142.833 245.373 143.233 245.6 143.54C245.84 143.847 246.147 144.093 246.52 144.28C246.907 144.467 247.327 144.64 247.78 144.8C248.247 144.947 248.707 145.113 249.16 145.3C249.613 145.487 250.027 145.733 250.4 146.04C250.787 146.333 251.093 146.72 251.32 147.2C251.56 147.68 251.68 148.3 251.68 149.06C251.68 149.753 251.567 150.353 251.34 150.86C251.113 151.367 250.8 151.787 250.4 152.12C250.013 152.453 249.553 152.707 249.02 152.88C248.5 153.04 247.94 153.12 247.34 153.12Z" fill="black"/>
<path d="M371.34 141.96C372.047 141.96 372.667 142.073 373.2 142.3C373.733 142.527 374.173 142.86 374.52 143.3C374.88 143.727 375.147 144.253 375.32 144.88C375.507 145.493 375.6 146.2 375.6 147C375.6 147.96 375.473 148.853 375.22 149.68C374.967 150.507 374.633 151.26 374.22 151.94C373.807 152.607 373.353 153.2 372.86 153.72C372.367 154.24 371.873 154.68 371.38 155.04C370.887 155.387 370.44 155.653 370.04 155.84C369.64 156.013 369.327 156.1 369.1 156.1C368.993 156.1 368.9 156.06 368.82 155.98C368.74 155.887 368.667 155.78 368.6 155.66C368.547 155.54 368.507 155.42 368.48 155.3C368.453 155.18 368.44 155.093 368.44 155.04C368.44 155.013 368.447 154.98 368.46 154.94C368.487 154.887 368.533 154.847 368.6 154.82C369.547 154.393 370.353 153.9 371.02 153.34C371.7 152.767 372.253 152.14 372.68 151.46C373.107 150.767 373.42 150.033 373.62 149.26C373.82 148.473 373.92 147.667 373.92 146.84C373.92 146.133 373.84 145.56 373.68 145.12C373.52 144.667 373.307 144.32 373.04 144.08C372.787 143.827 372.5 143.653 372.18 143.56C371.873 143.453 371.56 143.4 371.24 143.4C370.88 143.4 370.507 143.493 370.12 143.68C369.733 143.867 369.4 144.153 369.12 144.54C368.853 144.927 368.72 145.427 368.72 146.04C368.72 146.693 368.847 147.22 369.1 147.62C369.353 148.007 369.68 148.287 370.08 148.46C370.48 148.633 370.9 148.72 371.34 148.72C371.927 148.72 372.453 148.633 372.92 148.46C373.4 148.273 373.773 148.093 374.04 147.92L373.74 149.38C373.433 149.58 373.04 149.76 372.56 149.92C372.093 150.08 371.52 150.16 370.84 150.16C370.307 150.16 369.807 150.067 369.34 149.88C368.887 149.693 368.487 149.427 368.14 149.08C367.793 148.72 367.52 148.293 367.32 147.8C367.12 147.293 367.02 146.733 367.02 146.12C367.02 145.48 367.127 144.907 367.34 144.4C367.567 143.893 367.873 143.46 368.26 143.1C368.66 142.727 369.12 142.447 369.64 142.26C370.173 142.06 370.74 141.96 371.34 141.96Z" fill="black"/>
<path d="M193.64 88.12C192.907 88.12 192.253 88.0533 191.68 87.92C191.12 87.7867 190.68 87.6267 190.36 87.44C190.053 87.2533 189.9 87.08 189.9 86.92C189.9 86.8267 189.927 86.7267 189.98 86.62C190.033 86.5 190.093 86.3867 190.16 86.28C190.24 86.1733 190.32 86.0867 190.4 86.02C190.48 85.9533 190.547 85.92 190.6 85.92C190.733 85.92 190.92 85.9867 191.16 86.12C191.413 86.24 191.74 86.3667 192.14 86.5C192.553 86.62 193.047 86.68 193.62 86.68C194.647 86.68 195.42 86.4333 195.94 85.94C196.46 85.4467 196.72 84.7133 196.72 83.74C196.72 82.8467 196.413 82.1667 195.8 81.7C195.187 81.2333 194.293 81 193.12 81H191.42C191.207 81 191.053 80.9533 190.96 80.86C190.88 80.7667 190.847 80.6133 190.86 80.4L191.2 74.6C191.213 74.3867 191.267 74.2333 191.36 74.14C191.467 74.0467 191.627 74 191.84 74H197.16C197.427 74 197.56 74.2 197.56 74.6V74.84C197.56 75.24 197.427 75.44 197.16 75.44H192.12L192.86 74.74L192.52 80.26L191.86 79.56H193.6C194.147 79.56 194.7 79.6267 195.26 79.76C195.82 79.8933 196.34 80.12 196.82 80.44C197.313 80.7467 197.707 81.1733 198 81.72C198.293 82.2533 198.44 82.9267 198.44 83.74C198.44 84.42 198.327 85.0333 198.1 85.58C197.887 86.1133 197.573 86.5733 197.16 86.96C196.747 87.3333 196.24 87.62 195.64 87.82C195.053 88.02 194.387 88.12 193.64 88.12Z" fill="black"/>
<path d="M314.36 88.1C313.653 88.1 313.033 87.9867 312.5 87.76C311.967 87.5333 311.52 87.2067 311.16 86.78C310.813 86.34 310.547 85.8133 310.36 85.2C310.187 84.5733 310.1 83.86 310.1 83.06C310.1 82.1 310.227 81.2067 310.48 80.38C310.733 79.5533 311.067 78.8067 311.48 78.14C311.893 77.46 312.347 76.86 312.84 76.34C313.333 75.82 313.827 75.3867 314.32 75.04C314.813 74.68 315.26 74.4133 315.66 74.24C316.06 74.0533 316.373 73.96 316.6 73.96C316.707 73.96 316.8 74.0067 316.88 74.1C316.96 74.18 317.027 74.28 317.08 74.4C317.147 74.52 317.193 74.64 317.22 74.76C317.247 74.8667 317.26 74.9533 317.26 75.02C317.26 75.0467 317.247 75.0867 317.22 75.14C317.207 75.18 317.167 75.2133 317.1 75.24C316.153 75.6533 315.34 76.1467 314.66 76.72C313.993 77.2933 313.447 77.9267 313.02 78.62C312.593 79.3 312.28 80.0333 312.08 80.82C311.88 81.5933 311.78 82.3933 311.78 83.22C311.78 83.9133 311.86 84.4867 312.02 84.94C312.18 85.3933 312.387 85.7467 312.64 86C312.907 86.24 313.193 86.4133 313.5 86.52C313.82 86.6133 314.14 86.66 314.46 86.66C314.82 86.66 315.193 86.5667 315.58 86.38C315.967 86.1933 316.293 85.9067 316.56 85.52C316.84 85.1333 316.98 84.6333 316.98 84.02C316.98 83.3667 316.853 82.8467 316.6 82.46C316.347 82.06 316.02 81.7733 315.62 81.6C315.22 81.4267 314.8 81.34 314.36 81.34C313.773 81.34 313.24 81.4333 312.76 81.62C312.293 81.7933 311.927 81.9667 311.66 82.14L311.96 80.68C312.267 80.48 312.653 80.3 313.12 80.14C313.6 79.98 314.18 79.9 314.86 79.9C315.393 79.9 315.887 79.9933 316.34 80.18C316.807 80.3667 317.213 80.64 317.56 81C317.907 81.3467 318.18 81.7733 318.38 82.28C318.58 82.7733 318.68 83.3267 318.68 83.94C318.68 84.58 318.567 85.1533 318.34 85.66C318.127 86.1667 317.82 86.6067 317.42 86.98C317.033 87.34 316.573 87.62 316.04 87.82C315.52 88.0067 314.96 88.1 314.36 88.1Z" fill="black"/>
<path d="M253.66 15.12C253.087 15.12 252.567 15.08 252.1 15C251.633 14.9333 251.233 14.84 250.9 14.72C250.567 14.6 250.307 14.4733 250.12 14.34C249.947 14.1933 249.86 14.06 249.86 13.94C249.86 13.8067 249.893 13.6667 249.96 13.52C250.027 13.3733 250.107 13.2467 250.2 13.14C250.293 13.0333 250.373 12.98 250.44 12.98C250.56 12.98 250.747 13.04 251 13.16C251.267 13.2667 251.607 13.38 252.02 13.5C252.433 13.62 252.927 13.68 253.5 13.68C254.167 13.68 254.72 13.58 255.16 13.38C255.613 13.1667 255.953 12.8533 256.18 12.44C256.407 12.0267 256.52 11.52 256.52 10.92C256.52 9.89333 256.24 9.2 255.68 8.84C255.12 8.46667 254.387 8.28 253.48 8.28H252.62C252.353 8.28 252.22 8.08 252.22 7.68V7.46C252.22 7.24667 252.253 7.09333 252.32 7C252.387 6.90667 252.487 6.86 252.62 6.86H253.4C253.813 6.86 254.18 6.8 254.5 6.68C254.833 6.56 255.113 6.38667 255.34 6.16C255.58 5.93333 255.76 5.66 255.88 5.34C256 5.00667 256.06 4.64 256.06 4.24C256.06 3.98667 255.993 3.71333 255.86 3.42C255.74 3.11333 255.507 2.85333 255.16 2.64C254.827 2.42667 254.333 2.32 253.68 2.32C253.08 2.32 252.587 2.37333 252.2 2.48C251.813 2.58667 251.513 2.7 251.3 2.82C251.087 2.92667 250.92 2.98 250.8 2.98C250.733 2.98 250.653 2.93333 250.56 2.84C250.467 2.73333 250.387 2.61333 250.32 2.48C250.267 2.34667 250.24 2.23333 250.24 2.14C250.24 2.02 250.353 1.88667 250.58 1.74C250.807 1.59333 251.093 1.45333 251.44 1.32C251.8 1.18667 252.18 1.08 252.58 0.999999C252.98 0.919999 253.36 0.879999 253.72 0.879999C254.907 0.879999 255.867 1.16 256.6 1.72C257.347 2.28 257.72 3.13333 257.72 4.28C257.72 4.78667 257.62 5.24 257.42 5.64C257.233 6.02667 256.987 6.36 256.68 6.64C256.373 6.90667 256.047 7.12 255.7 7.28V7.36C256.1 7.46667 256.493 7.67333 256.88 7.98C257.267 8.28667 257.587 8.68667 257.84 9.18C258.093 9.67333 258.22 10.26 258.22 10.94C258.22 11.8067 258.033 12.5533 257.66 13.18C257.3 13.8067 256.78 14.2867 256.1 14.62C255.42 14.9533 254.607 15.12 253.66 15.12Z" fill="black"/>
</svg>
