<svg width="404" height="352" viewBox="0 0 404 352" fill="none" xmlns="http://www.w3.org/2000/svg">
<rect width="404" height="352" fill="#D9D9D9" fill-opacity="0.33"/>
<path d="M201.765 272.894C213.968 273.107 223.688 283.173 223.475 295.376C223.262 307.58 213.197 317.3 200.993 317.087C188.79 316.874 179.07 306.808 179.283 294.605C179.496 282.402 189.562 272.681 201.765 272.894Z" fill="#3D783F" fill-opacity="0.71" stroke="#3D783F"/>
<path d="M200.597 339.8L200.985 317.587" stroke="#3D783F" stroke-width="2" stroke-miterlimit="10"/>
<path d="M222.17 340.224L199.573 339.829" stroke="#3D783F" stroke-width="2" stroke-miterlimit="10"/>
<g opacity="0.41">
<path d="M242.953 302.836C237.517 296.672 233.297 291.886 229.055 287.076C224.964 282.437 220.853 277.774 215.611 271.83L188.509 272.042L161.407 272.254C161.407 272.254 169.689 281.863 174.996 288.019C180.302 294.176 188.584 303.785 188.584 303.785L215.769 303.31L242.953 302.836Z" fill="#3D783F"/>
<path d="M174.996 288.019C169.689 281.863 161.407 272.254 161.407 272.254L188.509 272.042M174.996 288.019C180.302 294.176 188.584 303.785 188.584 303.785L215.769 303.31M174.996 288.019L229.055 287.076M229.055 287.076C233.297 291.886 237.517 296.672 242.953 302.836L215.769 303.31M229.055 287.076C224.964 282.437 220.853 277.774 215.611 271.83L188.509 272.042M215.769 303.31L188.509 272.042" stroke="black" stroke-width="0.5" stroke-dasharray="2 2"/>
</g>
<path d="M258.417 48.9739L214.907 271.82" stroke="black" stroke-opacity="0.9" stroke-width="0.4" stroke-miterlimit="10" stroke-dasharray="1 1"/>
<path d="M140.391 48.5336L188.92 272.774" stroke="black" stroke-opacity="0.9" stroke-width="0.4" stroke-miterlimit="10" stroke-dasharray="1 1"/>
<path d="M21.3742 48.6108L161.407 272.254" stroke="black" stroke-opacity="0.9" stroke-width="0.4" stroke-miterlimit="10" stroke-dasharray="1 1"/>
<path d="M139.317 187.574L188.961 303.778" stroke="black" stroke-opacity="0.9" stroke-width="0.4" stroke-miterlimit="10" stroke-dasharray="1 1"/>
<path d="M258.817 186.488L215.457 303.316" stroke="black" stroke-opacity="0.9" stroke-width="0.4" stroke-miterlimit="10" stroke-dasharray="1 1"/>
<path d="M378.316 185.402L242.453 302.844" stroke="black" stroke-opacity="0.9" stroke-width="0.4" stroke-miterlimit="10" stroke-dasharray="1 1"/>
<path d="M79.5959 118.105L174.667 287.025" stroke="black" stroke-opacity="0.9" stroke-width="0.4" stroke-miterlimit="10" stroke-dasharray="1 1"/>
<path d="M199.037 116.02L202.022 287.048" stroke="black" stroke-opacity="0.9" stroke-width="0.4" stroke-miterlimit="10" stroke-dasharray="1 1"/>
<path d="M316.595 115.969L229.158 286.074" stroke="black" stroke-opacity="0.9" stroke-width="0.4" stroke-miterlimit="10" stroke-dasharray="1 1"/>
<g opacity="0.41">
<path d="M378.429 185.968C354.735 158.607 336.34 137.366 317.849 116.014C300.017 95.4215 282.095 74.7264 259.245 48.34L139.92 48.2321L20.5957 48.1243C20.5957 48.1243 56.6882 90.7672 79.8146 118.091C102.941 145.414 139.034 188.057 139.034 188.057L258.731 187.013L378.429 185.968Z" fill="#3D783F"/>
<path d="M79.8146 118.091C56.6882 90.7672 20.5957 48.1243 20.5957 48.1243L139.92 48.2321M79.8146 118.091C102.941 145.414 139.034 188.057 139.034 188.057L258.731 187.013M79.8146 118.091L317.849 116.014M317.849 116.014C336.34 137.366 354.735 158.607 378.429 185.968L258.731 187.013M317.849 116.014C300.017 95.4215 282.095 74.7264 259.245 48.34L139.92 48.2321M258.731 187.013L139.92 48.2321" stroke="black" stroke-dasharray="2 2"/>
</g>
<path d="M37.4 26C37.1333 26 37 25.8 37 25.4V25.16C37 24.76 37.1333 24.56 37.4 24.56H40.88V13.08L41.56 13.66L37.44 14.36C37.32 14.3733 37.22 14.34 37.14 14.26C37.0733 14.18 37.02 14.0733 36.98 13.94C36.9533 13.7933 36.94 13.66 36.94 13.54C36.94 13.34 36.9667 13.2067 37.02 13.14C37.0867 13.06 37.18 13.0067 37.3 12.98L41.94 11.96C42.0867 11.96 42.2267 12 42.36 12.08C42.4933 12.16 42.56 12.26 42.56 12.38V24.56H45.72C45.9867 24.56 46.12 24.76 46.12 25.16V25.4C46.12 25.8 45.9867 26 45.72 26H37.4Z" fill="black"/>
<path d="M153.34 26C153.26 26 153.193 25.9533 153.14 25.86C153.1 25.7667 153.067 25.6533 153.04 25.52C153.027 25.3733 153.02 25.24 153.02 25.12C153.02 25.0533 153.027 24.9867 153.04 24.92C153.053 24.8533 153.073 24.8067 153.1 24.78L158.82 17.6C158.993 17.3867 159.133 17.1733 159.24 16.96C159.36 16.7333 159.453 16.5067 159.52 16.28C159.587 16.0533 159.62 15.8267 159.62 15.6C159.62 14.8933 159.4 14.34 158.96 13.94C158.52 13.5267 157.933 13.32 157.2 13.32C156.573 13.32 156.047 13.4 155.62 13.56C155.193 13.7067 154.853 13.8533 154.6 14C154.36 14.1467 154.18 14.22 154.06 14.22C153.993 14.22 153.913 14.1667 153.82 14.06C153.727 13.9533 153.647 13.8333 153.58 13.7C153.513 13.5533 153.48 13.4333 153.48 13.34C153.48 13.22 153.587 13.08 153.8 12.92C154.027 12.7467 154.327 12.5867 154.7 12.44C155.073 12.28 155.487 12.1467 155.94 12.04C156.393 11.9333 156.86 11.88 157.34 11.88C158.513 11.88 159.467 12.2067 160.2 12.86C160.933 13.5 161.3 14.3733 161.3 15.48C161.3 15.8667 161.247 16.2467 161.14 16.62C161.047 16.9933 160.907 17.36 160.72 17.72C160.533 18.0667 160.307 18.4067 160.04 18.74L155.36 24.56H161.06C161.327 24.56 161.46 24.76 161.46 25.16V25.4C161.46 25.8 161.327 26 161.06 26H153.34Z" fill="black"/>
<path d="M95.52 99.04C95.3067 99.04 95.1533 99 95.06 98.92C94.9667 98.84 94.92 98.7333 94.92 98.6V95.66H88.76C88.6933 95.66 88.6267 95.6 88.56 95.48C88.4933 95.36 88.44 95.22 88.4 95.06C88.3733 94.9 88.36 94.76 88.36 94.64C88.36 94.5867 88.36 94.54 88.36 94.5C88.3733 94.46 88.3867 94.4333 88.4 94.42L94.98 85.24C95.0467 85.1467 95.14 85.08 95.26 85.04C95.3933 84.9867 95.5267 84.96 95.66 84.96H95.98C96.1933 84.96 96.3467 85 96.44 85.08C96.5333 85.1467 96.58 85.2533 96.58 85.4V94.22H97.92C98.1867 94.22 98.32 94.42 98.32 94.82V95.06C98.32 95.2733 98.2867 95.4267 98.22 95.52C98.1667 95.6133 98.0667 95.66 97.92 95.66H96.58V98.6C96.58 98.7333 96.5333 98.84 96.44 98.92C96.3467 99 96.1933 99.04 95.98 99.04H95.52ZM89.94 94.78L89.64 94.22H94.92V89.38C94.92 89.1533 94.9267 88.8933 94.94 88.6C94.9533 88.3067 94.98 88.0533 95.02 87.84L94.32 87.5L95.34 87.24L89.94 94.78Z" fill="black"/>
<path d="M139.8 164.04C139.507 164.04 139.287 164.02 139.14 163.98C139.007 163.927 138.94 163.84 138.94 163.72C138.94 163.68 138.947 163.64 138.96 163.6C138.987 163.547 139.007 163.493 139.02 163.44L145.1 150.82L145.5 151.44H138.5C138.233 151.44 138.1 151.24 138.1 150.84V150.6C138.1 150.2 138.233 150 138.5 150H146.28C146.4 150 146.5 150.06 146.58 150.18C146.66 150.287 146.713 150.42 146.74 150.58C146.78 150.74 146.8 150.887 146.8 151.02C146.8 151.06 146.793 151.1 146.78 151.14C146.78 151.18 146.773 151.213 146.76 151.24L140.84 163.72C140.813 163.787 140.76 163.847 140.68 163.9C140.6 163.94 140.507 163.973 140.4 164C140.293 164.027 140.173 164.04 140.04 164.04H139.8Z" fill="black"/>
<path d="M266.34 164.12C265.54 164.12 264.813 163.98 264.16 163.7C263.507 163.42 262.987 162.987 262.6 162.4C262.213 161.813 262.02 161.067 262.02 160.16C262.02 159.387 262.133 158.76 262.36 158.28C262.587 157.8 262.887 157.407 263.26 157.1C263.647 156.793 264.06 156.52 264.5 156.28L265.86 156.84C265.473 157.04 265.12 157.28 264.8 157.56C264.48 157.827 264.22 158.153 264.02 158.54C263.833 158.927 263.74 159.4 263.74 159.96C263.74 160.56 263.853 161.067 264.08 161.48C264.32 161.88 264.64 162.18 265.04 162.38C265.44 162.58 265.873 162.68 266.34 162.68C266.82 162.68 267.253 162.58 267.64 162.38C268.04 162.18 268.36 161.88 268.6 161.48C268.84 161.067 268.96 160.56 268.96 159.96C268.96 159.44 268.84 159.02 268.6 158.7C268.373 158.367 268.073 158.1 267.7 157.9C267.327 157.687 266.913 157.5 266.46 157.34C266.007 157.18 265.547 157.013 265.08 156.84C264.627 156.653 264.213 156.42 263.84 156.14C263.467 155.86 263.16 155.5 262.92 155.06C262.693 154.607 262.58 154.033 262.58 153.34C262.58 152.58 262.747 151.947 263.08 151.44C263.427 150.92 263.887 150.533 264.46 150.28C265.047 150.013 265.687 149.88 266.38 149.88C267.087 149.88 267.727 150.013 268.3 150.28C268.887 150.533 269.353 150.92 269.7 151.44C270.047 151.947 270.22 152.58 270.22 153.34C270.22 153.9 270.12 154.387 269.92 154.8C269.72 155.213 269.453 155.56 269.12 155.84C268.787 156.12 268.413 156.34 268 156.5L266.52 156C266.893 155.8 267.227 155.58 267.52 155.34C267.827 155.087 268.073 154.8 268.26 154.48C268.447 154.147 268.54 153.767 268.54 153.34C268.54 152.633 268.327 152.12 267.9 151.8C267.473 151.48 266.967 151.32 266.38 151.32C265.793 151.32 265.293 151.48 264.88 151.8C264.467 152.12 264.26 152.633 264.26 153.34C264.26 153.833 264.373 154.233 264.6 154.54C264.84 154.847 265.147 155.093 265.52 155.28C265.907 155.467 266.327 155.64 266.78 155.8C267.247 155.947 267.707 156.113 268.16 156.3C268.613 156.487 269.027 156.733 269.4 157.04C269.787 157.333 270.093 157.72 270.32 158.2C270.56 158.68 270.68 159.3 270.68 160.06C270.68 160.753 270.567 161.353 270.34 161.86C270.113 162.367 269.8 162.787 269.4 163.12C269.013 163.453 268.553 163.707 268.02 163.88C267.5 164.04 266.94 164.12 266.34 164.12Z" fill="black"/>
<path d="M390.34 152.96C391.047 152.96 391.667 153.073 392.2 153.3C392.733 153.527 393.173 153.86 393.52 154.3C393.88 154.727 394.147 155.253 394.32 155.88C394.507 156.493 394.6 157.2 394.6 158C394.6 158.96 394.473 159.853 394.22 160.68C393.967 161.507 393.633 162.26 393.22 162.94C392.807 163.607 392.353 164.2 391.86 164.72C391.367 165.24 390.873 165.68 390.38 166.04C389.887 166.387 389.44 166.653 389.04 166.84C388.64 167.013 388.327 167.1 388.1 167.1C387.993 167.1 387.9 167.06 387.82 166.98C387.74 166.887 387.667 166.78 387.6 166.66C387.547 166.54 387.507 166.42 387.48 166.3C387.453 166.18 387.44 166.093 387.44 166.04C387.44 166.013 387.447 165.98 387.46 165.94C387.487 165.887 387.533 165.847 387.6 165.82C388.547 165.393 389.353 164.9 390.02 164.34C390.7 163.767 391.253 163.14 391.68 162.46C392.107 161.767 392.42 161.033 392.62 160.26C392.82 159.473 392.92 158.667 392.92 157.84C392.92 157.133 392.84 156.56 392.68 156.12C392.52 155.667 392.307 155.32 392.04 155.08C391.787 154.827 391.5 154.653 391.18 154.56C390.873 154.453 390.56 154.4 390.24 154.4C389.88 154.4 389.507 154.493 389.12 154.68C388.733 154.867 388.4 155.153 388.12 155.54C387.853 155.927 387.72 156.427 387.72 157.04C387.72 157.693 387.847 158.22 388.1 158.62C388.353 159.007 388.68 159.287 389.08 159.46C389.48 159.633 389.9 159.72 390.34 159.72C390.927 159.72 391.453 159.633 391.92 159.46C392.4 159.273 392.773 159.093 393.04 158.92L392.74 160.38C392.433 160.58 392.04 160.76 391.56 160.92C391.093 161.08 390.52 161.16 389.84 161.16C389.307 161.16 388.807 161.067 388.34 160.88C387.887 160.693 387.487 160.427 387.14 160.08C386.793 159.72 386.52 159.293 386.32 158.8C386.12 158.293 386.02 157.733 386.02 157.12C386.02 156.48 386.127 155.907 386.34 155.4C386.567 154.893 386.873 154.46 387.26 154.1C387.66 153.727 388.12 153.447 388.64 153.26C389.173 153.06 389.74 152.96 390.34 152.96Z" fill="black"/>
<path d="M212.64 99.12C211.907 99.12 211.253 99.0533 210.68 98.92C210.12 98.7867 209.68 98.6267 209.36 98.44C209.053 98.2533 208.9 98.08 208.9 97.92C208.9 97.8267 208.927 97.7267 208.98 97.62C209.033 97.5 209.093 97.3867 209.16 97.28C209.24 97.1733 209.32 97.0867 209.4 97.02C209.48 96.9533 209.547 96.92 209.6 96.92C209.733 96.92 209.92 96.9867 210.16 97.12C210.413 97.24 210.74 97.3667 211.14 97.5C211.553 97.62 212.047 97.68 212.62 97.68C213.647 97.68 214.42 97.4333 214.94 96.94C215.46 96.4467 215.72 95.7133 215.72 94.74C215.72 93.8467 215.413 93.1667 214.8 92.7C214.187 92.2333 213.293 92 212.12 92H210.42C210.207 92 210.053 91.9533 209.96 91.86C209.88 91.7667 209.847 91.6133 209.86 91.4L210.2 85.6C210.213 85.3867 210.267 85.2333 210.36 85.14C210.467 85.0467 210.627 85 210.84 85H216.16C216.427 85 216.56 85.2 216.56 85.6V85.84C216.56 86.24 216.427 86.44 216.16 86.44H211.12L211.86 85.74L211.52 91.26L210.86 90.56H212.6C213.147 90.56 213.7 90.6267 214.26 90.76C214.82 90.8933 215.34 91.12 215.82 91.44C216.313 91.7467 216.707 92.1733 217 92.72C217.293 93.2533 217.44 93.9267 217.44 94.74C217.44 95.42 217.327 96.0333 217.1 96.58C216.887 97.1133 216.573 97.5733 216.16 97.96C215.747 98.3333 215.24 98.62 214.64 98.82C214.053 99.02 213.387 99.12 212.64 99.12Z" fill="black"/>
<path d="M333.36 99.1C332.653 99.1 332.033 98.9867 331.5 98.76C330.967 98.5333 330.52 98.2067 330.16 97.78C329.813 97.34 329.547 96.8133 329.36 96.2C329.187 95.5733 329.1 94.86 329.1 94.06C329.1 93.1 329.227 92.2067 329.48 91.38C329.733 90.5533 330.067 89.8067 330.48 89.14C330.893 88.46 331.347 87.86 331.84 87.34C332.333 86.82 332.827 86.3867 333.32 86.04C333.813 85.68 334.26 85.4133 334.66 85.24C335.06 85.0533 335.373 84.96 335.6 84.96C335.707 84.96 335.8 85.0067 335.88 85.1C335.96 85.18 336.027 85.28 336.08 85.4C336.147 85.52 336.193 85.64 336.22 85.76C336.247 85.8667 336.26 85.9533 336.26 86.02C336.26 86.0467 336.247 86.0867 336.22 86.14C336.207 86.18 336.167 86.2133 336.1 86.24C335.153 86.6533 334.34 87.1467 333.66 87.72C332.993 88.2933 332.447 88.9267 332.02 89.62C331.593 90.3 331.28 91.0333 331.08 91.82C330.88 92.5933 330.78 93.3933 330.78 94.22C330.78 94.9133 330.86 95.4867 331.02 95.94C331.18 96.3933 331.387 96.7467 331.64 97C331.907 97.24 332.193 97.4133 332.5 97.52C332.82 97.6133 333.14 97.66 333.46 97.66C333.82 97.66 334.193 97.5667 334.58 97.38C334.967 97.1933 335.293 96.9067 335.56 96.52C335.84 96.1333 335.98 95.6333 335.98 95.02C335.98 94.3667 335.853 93.8467 335.6 93.46C335.347 93.06 335.02 92.7733 334.62 92.6C334.22 92.4267 333.8 92.34 333.36 92.34C332.773 92.34 332.24 92.4333 331.76 92.62C331.293 92.7933 330.927 92.9667 330.66 93.14L330.96 91.68C331.267 91.48 331.653 91.3 332.12 91.14C332.6 90.98 333.18 90.9 333.86 90.9C334.393 90.9 334.887 90.9933 335.34 91.18C335.807 91.3667 336.213 91.64 336.56 92C336.907 92.3467 337.18 92.7733 337.38 93.28C337.58 93.7733 337.68 94.3267 337.68 94.94C337.68 95.58 337.567 96.1533 337.34 96.66C337.127 97.1667 336.82 97.6067 336.42 97.98C336.033 98.34 335.573 98.62 335.04 98.82C334.52 99.0067 333.96 99.1 333.36 99.1Z" fill="black"/>
<path d="M272.66 26.12C272.087 26.12 271.567 26.08 271.1 26C270.633 25.9333 270.233 25.84 269.9 25.72C269.567 25.6 269.307 25.4733 269.12 25.34C268.947 25.1933 268.86 25.06 268.86 24.94C268.86 24.8067 268.893 24.6667 268.96 24.52C269.027 24.3733 269.107 24.2467 269.2 24.14C269.293 24.0333 269.373 23.98 269.44 23.98C269.56 23.98 269.747 24.04 270 24.16C270.267 24.2667 270.607 24.38 271.02 24.5C271.433 24.62 271.927 24.68 272.5 24.68C273.167 24.68 273.72 24.58 274.16 24.38C274.613 24.1667 274.953 23.8533 275.18 23.44C275.407 23.0267 275.52 22.52 275.52 21.92C275.52 20.8933 275.24 20.2 274.68 19.84C274.12 19.4667 273.387 19.28 272.48 19.28H271.62C271.353 19.28 271.22 19.08 271.22 18.68V18.46C271.22 18.2467 271.253 18.0933 271.32 18C271.387 17.9067 271.487 17.86 271.62 17.86H272.4C272.813 17.86 273.18 17.8 273.5 17.68C273.833 17.56 274.113 17.3867 274.34 17.16C274.58 16.9333 274.76 16.66 274.88 16.34C275 16.0067 275.06 15.64 275.06 15.24C275.06 14.9867 274.993 14.7133 274.86 14.42C274.74 14.1133 274.507 13.8533 274.16 13.64C273.827 13.4267 273.333 13.32 272.68 13.32C272.08 13.32 271.587 13.3733 271.2 13.48C270.813 13.5867 270.513 13.7 270.3 13.82C270.087 13.9267 269.92 13.98 269.8 13.98C269.733 13.98 269.653 13.9333 269.56 13.84C269.467 13.7333 269.387 13.6133 269.32 13.48C269.267 13.3467 269.24 13.2333 269.24 13.14C269.24 13.02 269.353 12.8867 269.58 12.74C269.807 12.5933 270.093 12.4533 270.44 12.32C270.8 12.1867 271.18 12.08 271.58 12C271.98 11.92 272.36 11.88 272.72 11.88C273.907 11.88 274.867 12.16 275.6 12.72C276.347 13.28 276.72 14.1333 276.72 15.28C276.72 15.7867 276.62 16.24 276.42 16.64C276.233 17.0267 275.987 17.36 275.68 17.64C275.373 17.9067 275.047 18.12 274.7 18.28V18.36C275.1 18.4667 275.493 18.6733 275.88 18.98C276.267 19.2867 276.587 19.6867 276.84 20.18C277.093 20.6733 277.22 21.26 277.22 21.94C277.22 22.8067 277.033 23.5533 276.66 24.18C276.3 24.8067 275.78 25.2867 275.1 25.62C274.42 25.9533 273.607 26.12 272.66 26.12Z" fill="black"/>
</svg>
