<?xml version="1.0" encoding="UTF-8"?>
<svg id="Layer_1" xmlns="http://www.w3.org/2000/svg" xmlns:xlink="http://www.w3.org/1999/xlink" version="1.1" viewBox="0 0 792 612">
  <!-- Generator: Adobe Illustrator 29.4.0, SVG Export Plug-In . SVG Version: 2.1.0 Build 152)  -->
  <defs>
    <style>
      .st0 {
        fill: none;
      }

      .st1 {
        fill: url(#linear-gradient);
      }

      .st1, .st2, .st3, .st4, .st5 {
        stroke: #231f20;
        stroke-miterlimit: 10;
        stroke-width: .25px;
      }

      .st6 {
        fill: #00a651;
      }

      .st7 {
        fill: #00ace8;
      }

      .st8 {
        fill: #fff349;
      }

      .st9 {
        fill: #ed1c24;
      }

      .st10 {
        fill: #fff;
      }

      .st2 {
        fill: #d1d3d4;
      }

      .st11 {
        fill: #48388f;
      }

      .st12 {
        fill: #f37429;
      }

      .st3 {
        fill: url(#linear-gradient3);
      }

      .st4 {
        fill: url(#linear-gradient1);
      }

      .st5 {
        fill: url(#linear-gradient2);
      }
    </style>
    <linearGradient id="linear-gradient" x1="504.1" y1="95.07" x2="539.49" y2="95.07" gradientUnits="userSpaceOnUse">
      <stop offset="0" stop-color="#fff"/>
      <stop offset="0" stop-color="#8bd5eb"/>
      <stop offset=".21" stop-color="#b2e3f1"/>
      <stop offset=".43" stop-color="#d3eff7"/>
      <stop offset=".64" stop-color="#ebf7fb"/>
      <stop offset=".84" stop-color="#f9fdfe"/>
      <stop offset="1" stop-color="#fff"/>
    </linearGradient>
    <linearGradient id="linear-gradient1" x1="520.71" y1="94.67" x2="553.54" y2="94.67" gradientUnits="userSpaceOnUse">
      <stop offset="0" stop-color="#fff"/>
      <stop offset="0" stop-color="#8bd5eb"/>
      <stop offset=".12" stop-color="#a8dff0"/>
      <stop offset=".27" stop-color="#c7ebf5"/>
      <stop offset=".43" stop-color="#e0f3f9"/>
      <stop offset=".6" stop-color="#f1fafc"/>
      <stop offset=".78" stop-color="#fbfdfe"/>
      <stop offset="1" stop-color="#fff"/>
    </linearGradient>
    <linearGradient id="linear-gradient2" x1="499.57" y1="467.71" x2="534.96" y2="467.71" xlink:href="#linear-gradient"/>
    <linearGradient id="linear-gradient3" x1="516.18" y1="467.32" x2="549" y2="467.32" xlink:href="#linear-gradient1"/>
  </defs>
  <path class="st10" d="M271.1,364.94s0,0,0,0"/>
  <g>
    <path class="st0" d="M217.36,444.76l315.48,1.1V110.86l-315.48-1.1c-63.94,0-115.95,52.29-115.95,116.57v101.85c0,64.28,52.02,116.57,115.95,116.57Z"/>
    <path class="st9" d="M203.83,67.62c-38.92,0-75.56,16.16-103.18,45.49-27.43,29.13-42.54,67.67-42.54,108.52v113.11c0,40.84,15.11,79.38,42.54,108.52,27.62,29.33,64.26,45.49,103.18,45.49l376.49,1.1V68.72l-376.49-1.1ZM572.81,482.48l-366.55-1.1c-37.85,0-73.5-15.56-100.37-43.81-26.72-28.09-41.44-65.26-41.44-104.66v-109.49c0-39.4,14.72-76.56,41.44-104.66,26.88-28.25,62.52-43.81,100.37-43.81l366.55,1.1v406.43Z"/>
    <path class="st12" d="M105.89,118.76c-26.72,28.09-41.44,65.26-41.44,104.66v109.49c0,39.4,14.72,76.57,41.44,104.66,26.88,28.25,62.52,43.81,100.37,43.81l366.55,1.1V76.04l-366.55-1.1c-37.85,0-73.5,15.56-100.37,43.81ZM565.3,83.45v391.66l-355.74-1.1c-36.68,0-71.23-14.66-97.29-41.28-25.97-26.52-40.27-61.63-40.27-98.84v-111.41c0-37.22,14.3-72.32,40.27-98.84,26.07-26.62,60.62-41.28,97.29-41.28l355.74,1.1Z"/>
    <path class="st8" d="M112.26,123.63c-25.97,26.52-40.27,61.62-40.27,98.84v111.41c0,37.22,14.3,72.32,40.27,98.84,26.07,26.62,60.62,41.28,97.29,41.28l355.74,1.1V83.45l-355.74-1.1c-36.68,0-71.23,14.66-97.29,41.28ZM212.47,88.88l345.31,1.1v378.33l-345.31-1.1c-35.57,0-69.08-14.13-94.37-39.78-25.21-25.57-39.09-59.42-39.09-95.31v-108.15c0-35.89,13.88-69.74,39.09-95.31,25.29-25.65,58.8-39.78,94.37-39.78Z"/>
    <path class="st6" d="M79.01,332.12c0,35.89,13.88,69.74,39.09,95.31,25.29,25.65,58.8,39.78,94.37,39.78l345.31,1.1V89.98l-345.31-1.1c-35.57,0-69.09,14.13-94.37,39.78-25.21,25.57-39.09,59.42-39.09,95.31v108.15ZM85.26,225.23c0-71.64,58.13-129.92,129.58-129.92l335.43,1.1v364.62l-335.43-1.1c-71.45,0-129.58-58.28-129.58-129.92v-104.79Z"/>
    <path class="st7" d="M214.84,459.94l335.43,1.1V96.41l-335.43-1.1c-71.45,0-129.58,58.28-129.58,129.92v104.79c0,71.64,58.13,129.92,129.58,129.92ZM91.9,226.33c0-69.14,56.28-125.39,125.46-125.39l324.98,1.1v352.63l-324.98-1.1c-69.18,0-125.46-56.25-125.46-125.39v-101.85Z"/>
    <path class="st11" d="M217.36,453.57l324.98,1.1V102.05l-324.98-1.1c-69.18,0-125.46,56.25-125.46,125.39v101.85c0,69.14,56.28,125.39,125.46,125.39ZM101.41,226.33c0-64.28,52.02-116.57,115.95-116.57l315.48,1.1v335l-315.48-1.1c-63.94,0-115.95-52.29-115.95-116.57v-101.85Z"/>
  </g>
  <rect class="st10" x="526.52" y="54.46" width="83.83" height="459.67"/>
  <g>
    <path class="st1" d="M539.86,99.09c0-.13.02-.26.07-.41.15-.48.51-.51.86-.54.17-.02.36-.03.52-.1.25-.12,3.03-2.64,3.27-2.97,3.02-4.17,1.69-8.97-3.55-12.85-.25-.18-1.07-.65-1.94-1.15-1.58-.91-2.33-1.35-2.37-1.47-.11-.35.27-.7.64-1.05.19-.19.38-.36.46-.51,1.96-3.52.91-8.5-3.78-10.32-.34-.13-1.9-.59-2.19-.6-.45-.02-.95.04-1.48.1-.71.08-1.44.17-2.03.05-.42-.09-.81-.43-1.26-.83-.89-.78-1.91-1.67-3.45-.79-.07.05-.18.13-.29.2-.22.15-.46.32-.54.4-.51.34-.73.5-1.12,1.36-.57,1.15-.77,2.28-.58,3.27.05.25.23.51.41.77.21.3.41.59.37.83-.03.2-.53.68-1.27,1.4-.42.4-.81.78-.98,1-2.49,3.2-3.15,6.85-1.87,10.28.27.74.71,1.37,1.12,1.98.37.54.75,1.1,1.02,1.73l.03.07h-.09c-2.18.13-4.47,1-6.63,2.52-1.74,1.23-3.33,2.85-4.36,4.44-2.71,4.19-2.72,8.49-.03,12.09,2.93,3.92,8.63,6.36,15.64,6.71h.08s0,.06,0,.06c-.59,3.64,1.64,6.02,6.12,6.53h.02s.27.11.27.11h.54c.24.01.46.01.67.01.72,0,1.34,0,2.18-.02h.07s0,.05,0,.05c.03.17.14.3.25.44.11.13.22.26.26.42.52.42.52.42.81.79.21.27.62.71.86.94.45.44.64.52,1.04.67.09.03.19.07.3.12l3.19-2.43c.35-.5.67-1.12.87-1.69,1.07-2.95-.33-6.15-3.73-8.54l-.04-.03.03-.04c.39-.47.93-.87,1.45-1.27.57-.43,1.16-.87,1.55-1.39,1.92-2.51,1.88-5.26-.11-8.66-.13-.22-.34-.41-.54-.58-.35-.31-.71-.62-.71-1.14Z"/>
    <path class="st4" d="M523.51,65.66c.09-.07.03-.31.63-.65,3.85-2.21,9.29-1.51,12.03.62.52.4.28,1.15,1.52,1.06,1.37-.1,1.88-.52,3.6-.22,3.68.63,6.06,3.65,6.37,6.09s-.39,4.21-1.97,6.41c2.66,1.61,5.28,3.07,7.12,5.19,3.92,4.49,3.16,10.42-4.17,13.98-.15.5,1.64,2.45,1.99,3.16,1.15,2.34,1.34,5.12-.46,7.57-.8,1.09-2.06,1.69-2.95,2.68,3.58,2.69,5.48,6.14,2.89,9.95-2.18,3.21-7.9,5.35-12.26,3.48l3.23-2.47c.5-.6.7-1.19.89-1.71,1.17-3.24-.64-6.41-3.75-8.59.8-.96,2.24-1.64,3.01-2.65,2.28-2.98,1.49-5.98-.1-8.71-.41-.7-1.53-.98-1.18-2.1.21-.68.84-.38,1.34-.61.27-.13,3.05-2.65,3.29-2.99,3.44-4.75.94-9.58-3.56-12.91-.58-.43-4.23-2.4-4.29-2.59-.15-.5.85-1.08,1.1-1.52,1.97-3.53.94-8.55-3.82-10.39-.33-.13-1.91-.59-2.21-.61-1.06-.05-2.49.35-3.5.15-1.22-.25-2.4-2.97-4.78-1.6Z"/>
    <path class="st2" d="M555.23,89.82c0,.63-.08,1.25-.25,1.87-.71,2.6-2.88,4.84-6.26,6.5-.05.31.62,1.21,1.17,1.93.35.47.69.91.82,1.17.77,1.56,1.74,4.63-.47,7.62-.45.61-1.05,1.07-1.63,1.52-.45.35-.91.71-1.3,1.13,2.92,2.21,5.76,5.72,2.86,9.98-1.23,1.81-3.63,3.31-6.25,3.91-2.19.5-4.3.36-6.1-.42l-.08-.04,3.3-2.52c.46-.55.66-1.11.83-1.6l.03-.09c1.07-2.95-.33-6.15-3.73-8.54l-.04-.03.03-.04c.39-.47.93-.87,1.45-1.27.57-.43,1.16-.87,1.55-1.39,1.92-2.51,1.88-5.26-.11-8.66-.13-.22-.34-.41-.54-.58-.44-.38-.89-.77-.64-1.55.15-.48.51-.51.86-.54.17-.02.36-.03.52-.1.25-.12,3.03-2.64,3.27-2.97,3.02-4.17,1.69-8.97-3.55-12.85-.25-.18-1.07-.65-1.94-1.15-1.58-.91-2.33-1.35-2.37-1.47-.11-.35.27-.7.64-1.05.19-.19.38-.36.46-.51,1.96-3.52.91-8.5-3.78-10.32-.34-.13-1.9-.59-2.19-.6-.45-.02-.95.04-1.48.1-.71.08-1.44.17-2.03.05-.42-.09-.81-.43-1.26-.83-.89-.78-1.91-1.67-3.45-.79l-.09-.08s.02-.04.04-.07c.05-.11.14-.33.6-.59,3.9-2.23,9.42-1.48,12.13.63.18.14.27.32.36.48.17.33.32.62,1.1.56.46-.03.81-.1,1.16-.17.67-.13,1.3-.25,2.46-.05,3.62.62,6.11,3.61,6.42,6.14.28,2.21-.29,4.07-1.94,6.4.24.15.48.29.73.44,2.41,1.45,4.69,2.82,6.36,4.73,1.55,1.77,2.35,3.74,2.35,5.69ZM548.57,98.22s0-.05.01-.08v-.02s.03-.01.03-.01c3.37-1.64,5.52-3.86,6.22-6.44.68-2.5-.05-5.15-2.08-7.47-1.66-1.9-3.93-3.26-6.33-4.71-.26-.15-.52-.31-.77-.47l-.05-.03.03-.04c1.67-2.33,2.23-4.18,1.96-6.38-.31-2.49-2.76-5.43-6.31-6.04-1.12-.19-1.71-.08-2.4.05-.35.07-.71.14-1.18.17-.89.07-1.07-.29-1.25-.63-.08-.16-.17-.32-.33-.45-2.67-2.07-8.1-2.82-11.94-.62-.33.19-.45.34-.51.45,1.54-.76,2.59.16,3.44.91.42.37.81.71,1.19.79.56.12,1.28.03,1.97-.05.52-.06,1.05-.12,1.51-.1.33.02,1.93.49,2.24.61,4.76,1.84,5.84,6.9,3.85,10.46-.09.17-.28.35-.48.54-.34.32-.7.66-.61.95.07.11,1.31.83,2.32,1.4.87.5,1.7.97,1.96,1.16,5.29,3.91,6.63,8.76,3.57,12.98-.26.35-3.05,2.89-3.32,3.01-.19.09-.38.1-.57.12-.34.03-.61.05-.73.46-.23.72.18,1.08.61,1.46.21.18.43.37.57.61,2.01,3.44,2.04,6.22.1,8.76-.41.53-1,.98-1.58,1.41-.5.38-1.02.77-1.4,1.21,3.41,2.42,4.81,5.63,3.73,8.62l-.03.09c-.18.5-.38,1.06-.86,1.64l-3.17,2.43c2.2.92,4.42.71,5.91.37,2.59-.59,4.95-2.07,6.17-3.86,2.87-4.22.02-7.7-2.88-9.88l-.04-.03.03-.04c.4-.45.88-.82,1.35-1.18.57-.44,1.16-.9,1.6-1.5,2.17-2.95,1.22-5.98.46-7.52-.13-.26-.46-.7-.81-1.16-.59-.78-1.19-1.58-1.19-1.95Z"/>
  </g>
  <g>
    <path class="st5" d="M535.33,471.73c0-.13.02-.26.07-.41.15-.48.51-.51.86-.54.17-.02.36-.03.52-.1.25-.12,3.03-2.64,3.27-2.97,3.02-4.17,1.69-8.97-3.55-12.85-.25-.18-1.07-.65-1.94-1.15-1.58-.91-2.33-1.35-2.37-1.47-.11-.35.27-.7.64-1.05.19-.19.38-.36.46-.51,1.96-3.52.91-8.5-3.78-10.32-.34-.13-1.9-.59-2.19-.6-.45-.02-.95.04-1.48.1-.71.08-1.44.17-2.03.05-.42-.09-.81-.43-1.26-.83-.89-.78-1.91-1.67-3.45-.79-.07.05-.18.13-.29.2-.22.15-.46.32-.54.4-.51.34-.73.5-1.12,1.36-.57,1.15-.77,2.28-.58,3.27.05.25.23.51.41.77.21.3.41.59.37.83-.03.2-.53.68-1.27,1.4-.42.4-.81.78-.98,1-2.49,3.2-3.15,6.85-1.87,10.28.27.74.71,1.37,1.12,1.98.37.54.75,1.1,1.02,1.73l.03.07h-.09c-2.18.13-4.47,1-6.63,2.52-1.74,1.23-3.33,2.85-4.36,4.44-2.71,4.19-2.72,8.49-.03,12.09,2.93,3.92,8.63,6.36,15.64,6.71h.08s0,.06,0,.06c-.59,3.64,1.64,6.02,6.12,6.53h.02s.27.11.27.11h.54c.24.01.46.01.67.01.72,0,1.34,0,2.18-.02h.07s0,.05,0,.05c.03.17.14.3.25.44.11.13.22.26.26.42.52.42.52.42.81.79.21.27.62.71.86.94.45.44.64.52,1.04.67.09.03.19.07.3.12l3.19-2.43c.35-.5.67-1.12.87-1.69,1.07-2.95-.33-6.15-3.73-8.54l-.04-.03.03-.04c.39-.47.93-.87,1.45-1.27.57-.43,1.16-.87,1.55-1.39,1.92-2.51,1.88-5.26-.11-8.66-.13-.22-.34-.41-.54-.58-.35-.31-.71-.62-.71-1.14Z"/>
    <path class="st3" d="M518.98,438.31c.09-.07.03-.31.63-.65,3.85-2.21,9.29-1.51,12.03.62.52.4.28,1.15,1.52,1.06,1.37-.1,1.88-.52,3.6-.22,3.68.63,6.06,3.65,6.37,6.09s-.39,4.21-1.97,6.41c2.66,1.61,5.28,3.07,7.12,5.19,3.92,4.49,3.16,10.42-4.17,13.98-.15.5,1.64,2.45,1.99,3.16,1.15,2.34,1.34,5.12-.46,7.57-.8,1.09-2.06,1.69-2.95,2.68,3.58,2.69,5.48,6.14,2.89,9.95-2.18,3.21-7.9,5.35-12.26,3.48l3.23-2.47c.5-.6.7-1.19.89-1.71,1.17-3.24-.64-6.41-3.75-8.59.8-.96,2.24-1.64,3.01-2.65,2.28-2.98,1.49-5.98-.1-8.71-.41-.7-1.53-.98-1.18-2.1.21-.68.84-.38,1.34-.61.27-.13,3.05-2.65,3.29-2.99,3.44-4.75.94-9.58-3.56-12.91-.58-.43-4.23-2.4-4.29-2.59-.15-.5.85-1.08,1.1-1.52,1.97-3.53.94-8.55-3.82-10.39-.33-.13-1.91-.59-2.21-.61-1.06-.05-2.49.35-3.5.15-1.22-.25-2.4-2.97-4.78-1.6Z"/>
    <path class="st2" d="M550.69,462.47c0,.63-.08,1.25-.25,1.87-.71,2.6-2.88,4.84-6.26,6.5-.05.31.62,1.21,1.17,1.93.35.47.69.91.82,1.17.77,1.56,1.74,4.63-.47,7.62-.45.61-1.05,1.07-1.63,1.52-.45.35-.91.71-1.3,1.13,2.92,2.21,5.76,5.72,2.86,9.98-1.23,1.81-3.63,3.31-6.25,3.91-2.19.5-4.3.36-6.1-.42l-.08-.04,3.3-2.52c.46-.55.66-1.11.83-1.6l.03-.09c1.07-2.95-.33-6.15-3.73-8.54l-.04-.03.03-.04c.39-.47.93-.87,1.45-1.27.57-.43,1.16-.87,1.55-1.39,1.92-2.51,1.88-5.26-.11-8.66-.13-.22-.34-.41-.54-.58-.44-.38-.89-.77-.64-1.55.15-.48.51-.51.86-.54.17-.02.36-.03.52-.1.25-.12,3.03-2.64,3.27-2.97,3.02-4.17,1.69-8.97-3.55-12.85-.25-.18-1.07-.65-1.94-1.15-1.58-.91-2.33-1.35-2.37-1.47-.11-.35.27-.7.64-1.05.19-.19.38-.36.46-.51,1.96-3.52.91-8.5-3.78-10.32-.34-.13-1.9-.59-2.19-.6-.45-.02-.95.04-1.48.1-.71.08-1.44.17-2.03.05-.42-.09-.81-.43-1.26-.83-.89-.78-1.91-1.67-3.45-.79l-.09-.08s.02-.04.04-.07c.05-.11.14-.33.6-.59,3.9-2.23,9.42-1.48,12.13.63.18.14.27.32.36.48.17.33.32.62,1.1.56.46-.03.81-.1,1.16-.17.67-.13,1.3-.25,2.46-.05,3.62.62,6.11,3.61,6.42,6.14.28,2.21-.29,4.07-1.94,6.4.24.15.48.29.73.44,2.41,1.45,4.69,2.82,6.36,4.73,1.55,1.77,2.35,3.74,2.35,5.69ZM544.03,470.86s0-.05.01-.08v-.02s.03-.01.03-.01c3.37-1.64,5.52-3.86,6.22-6.44.68-2.5-.05-5.15-2.08-7.47-1.66-1.9-3.93-3.26-6.33-4.71-.26-.15-.52-.31-.77-.47l-.05-.03.03-.04c1.67-2.33,2.23-4.18,1.96-6.38-.31-2.49-2.76-5.43-6.31-6.04-1.12-.19-1.71-.08-2.4.05-.35.07-.71.14-1.18.17-.89.07-1.07-.29-1.25-.63-.08-.16-.17-.32-.33-.45-2.67-2.07-8.1-2.82-11.94-.62-.33.19-.45.34-.51.45,1.54-.76,2.59.16,3.44.91.42.37.81.71,1.19.79.56.12,1.28.03,1.97-.05.52-.06,1.05-.12,1.51-.1.33.02,1.93.49,2.24.61,4.76,1.84,5.84,6.9,3.85,10.46-.09.17-.28.35-.48.54-.34.32-.7.66-.61.95.07.11,1.31.83,2.32,1.4.87.5,1.7.97,1.96,1.16,5.29,3.91,6.63,8.76,3.57,12.98-.26.35-3.05,2.89-3.32,3.01-.19.09-.38.1-.57.12-.34.03-.61.05-.73.46-.23.72.18,1.08.61,1.46.21.18.43.37.57.61,2.01,3.44,2.04,6.22.1,8.76-.41.53-1,.98-1.58,1.41-.5.38-1.02.77-1.4,1.21,3.41,2.42,4.81,5.63,3.73,8.62l-.03.09c-.18.5-.38,1.06-.86,1.64l-3.17,2.43c2.2.92,4.42.71,5.91.37,2.59-.59,4.95-2.07,6.17-3.86,2.87-4.22.02-7.7-2.88-9.88l-.04-.03.03-.04c.4-.45.88-.82,1.35-1.18.57-.44,1.16-.9,1.6-1.5,2.17-2.95,1.22-5.98.46-7.52-.13-.26-.46-.7-.81-1.16-.59-.78-1.19-1.58-1.19-1.95Z"/>
  </g>
</svg>