<?xml version="1.0" encoding="UTF-8"?>
<svg id="Layer_1" xmlns="http://www.w3.org/2000/svg" version="1.1" viewBox="0 0 792 612">
  <!-- Generator: Adobe Illustrator 29.4.0, SVG Export Plug-In . SVG Version: 2.1.0 Build 152)  -->
  <defs>
    <style>
      .st0 {
        stroke: #2e3192;
        stroke-miterlimit: 10;
      }

      .st0, .st1 {
        fill: #fff;
      }

      .st2 {
        fill: #ef3e2a;
      }

      .st3 {
        fill: #0fa14a;
      }

      .st4 {
        fill: #d7e6a3;
      }
    </style>
  </defs>
  <path class="st0" d="M102.26,176.73"/>
  <path class="st3" d="M150.17,410.59l.7-265.89c0-11.31,42.69-12.3,53.88-12.3h347.71c11.19,0,20.26-1.2,20.26-12.51l-.53-39.35c0-11.31-9.66-13.52-20.84-13.52H84.49c-11.19,0-19.68,2.22-19.67,13.54l.17,439.92c0,.4.01.8.03,1.2.62,10.91,10.01,19.26,20.93,19.26h452.97c24.02,0,33.08-9.17,33.08-20.48v-74.25c0-11.31-8.92-22.53-20.11-22.53l-361.8,6.75c-11.19,0-39.94-8.53-39.94-19.84Z"/>
  <path class="st4" d="M572.01,521.75v-75.54c0-12.44-9-22.53-20.1-22.53H170.27c-11.1,0-20.1-.65-20.1-13.09l.7-265.89c0-12.44,9-12.63,20.1-12.63h381.63c11.1,0,20.1-2.1,20.1-14.54l-.53-34.96c0-12.44-9.59-15.55-20.69-15.55H103.69c-11.11,0-21.11,0-21.11,0l1.6,430.92c0,12.44,9.01,22.51,20.1,22.51"/>
  <path class="st2" d="M571.78,502.93l.23-67.56c0-11.47-8.68-11.22-19.39-11.22H184.06c-10.71,0-25.19-5.4-25.19-16.87l.71-249.36c0-11.47,14.49-24.66,25.19-24.66h368.55c10.71,0,19.39-1.22,19.39-12.69l-.53-39.85c0-11.47-9.28-13.71-19.99-13.71H101.65l.6,424.99c0,11.46,8.69,10.92,19.39,10.92"/>
  <path class="st1" d="M162.26,405.08s0,0,0,0"/>
  <g>
    <path class="st2" d="M171.37,90.38l376.81-8.36c1.8,62.02-291.43,10.79-289.71,31.06l-64.43-3.85c-10.53,0-74.89,33.79-50.91,67.51l1.68,288.99c0,15.8-3.44-19.94,7.09-19.94l310.97,5.92c-5.25-17.08,90.48-10.6,90.48,5.19l-28.76,20.25s-67.38,14.85-119.39-1.48l-221.14,7.66c-5.8-11.92-61.94-6.2-61.94-6.2l-3.27-370.15c0-15.79-5.51-7.7,5.01-7.7"/>
    <path d="M435.38,123.11c-1.8,1.03-4.44,2.57-5.29-.31-1.22-4.12.7-15.22,4.1-18,5.26-4.3,13.02,1.71,10.63,8.27-1.24,3.42-6.45,8.33-9.44,10.04Z"/>
    <path d="M470.89,94.37c-3.46-.11-6.96-3.56-6.98-7.48-.02-4.17,5.61-9.9,8.63-11.96,3.46-2.36,6-3.58,6.53,2.19.52,5.71-1.32,17.47-8.18,17.26Z"/>
    <path d="M340.07,115.6c-1.73,1.48-7.06,5.3-9.2,4.45-1.13-.45-1.39-2.71-1.43-3.86-.17-4.59,2.08-14.99,6.84-16.34,5.6-1.59,11.08,4.51,8.38,10.29-.8,1.72-3.17,4.23-4.6,5.45Z"/>
    <path d="M270.79,98.62c-5.61-.92-8.23-14.5-6.69-19.35.98-3.1,4.62-.79,6.33.3,2.68,1.72,7.88,6.64,8.6,10.03,1.15,5.43-3.49,9.8-8.24,9.02Z"/>
    <path d="M376.22,95.03c-9.1,7.02-13.64-10.12-12.18-17.36.18-.89.44-2.06,1.35-2.3,2.85-.76,9.27,5.05,11.1,7.39,3.14,3.99,4.25,8.79-.27,12.28Z"/>
    <path d="M166.44,80.08c3.6.56,11.63,7.65,12.58,11.44,1.19,4.77-2.69,9.43-7.11,9.29-6.18-.18-8.32-10.01-8.44-15.36-.05-2.32.2-5.81,2.98-5.38Z"/>
    <path d="M152.32,330.33c2.22,2.95,1.75,7.34-.68,9.98-5.27,5.74-11.71-1.24-14.78-5.99-1.16-1.79-4.08-6.28-1.57-7.78,3.51-2.1,14.43.33,17.03,3.78Z"/>
    <path d="M186.24,456.27c-2.41,1.07-3.9,1.38-4.48-1.93-.79-4.51,1.12-15.37,5.21-17.65,2.75-1.53,5.77-.74,7.93,1.53,6.2,6.56-3.22,15.62-8.65,18.05Z"/>
    <path d="M146.51,442.41c-2.89-.4-7.1-5.07-8.78-7.5-1.11-1.61-3.4-5.32-2.83-7.31.16-.58,1.5-1.19,2.04-1.32,3.96-.97,11,.41,14.46,2.69,6.1,4.02,2.12,14.42-4.9,13.45Z"/>
    <path d="M153.15,145.93c-4.18,1.71-12.06-3-14.86-5.91-1.02-1.06-2.62-3-1.23-4.45,2.65-2.75,12.95-4.45,16.42-3.35,6.17,1.94,5.68,11.25-.33,13.72Z"/>
    <path d="M133.8,239.24c.56-3.95,6.53-11.4,9.93-13.02,6.33-3.02,12.23,5.73,8.12,11.36-2.66,3.64-12.93,5.92-16.76,4.17-1.23-.56-1.49-1.06-1.28-2.5Z"/>
    <path d="M235.25,101.32c3.57.86,10.39,8.15,11.36,11.93,1.84,7.17-7.69,12.44-11.99,6.74-2.51-3.33-3.81-13.66-2.02-17.45.66-1.39,1.25-1.55,2.65-1.21Z"/>
    <path d="M429.77,490.49c-1.88.78-4.65,1.97-5.18-1.03-.75-4.29,2.35-15.13,6-17.44,5.65-3.58,12.63,3.5,9.57,9.73-1.6,3.25-7.26,7.44-10.39,8.75Z"/>
    <path d="M525.68,463.36c2.92-1.85,7.74-.94,9.93,2.31,2.33,3.45.84,11.37-.52,14.79-1.56,3.91-2.99,6.35-6.63,1.84-3.6-4.45-8.59-15.27-2.78-18.94Z"/>
    <path d="M336.5,483.52c-1.58,1.66-6.49,6.03-8.66,5.38-1.14-.35-1.58-2.61-1.72-3.77-.55-4.63.8-15.36,5.37-17.17,5.36-2.13,11.24,3.51,9.07,9.62-.65,1.82-2.76,4.58-4.06,5.95Z"/>
    <path d="M388.36,460.72c-5.58-1.14-7.61-14.79-5.87-19.57,1.11-3.06,4.66-.6,6.32.55,2.61,1.82,7.6,6.93,8.18,10.34.92,5.46-3.91,9.64-8.63,8.68Z"/>
    <path d="M490.08,450.8c-8.77,7.29-14.22-9.61-13.13-16.86.13-.89.33-2.06,1.23-2.33,2.82-.85,9.57,4.72,11.53,6.97,3.36,3.86,4.72,8.6.37,12.22Z"/>
    <path d="M284.96,437.75c3.52.72,11.15,8.26,11.93,12.15.98,4.89-3.01,9.44-7.37,9.12-6.08-.46-7.8-10.52-7.71-15.94.04-2.36.42-5.88,3.14-5.33Z"/>
    <path d="M129.36,293.28c1.04,2.64,1.36,4.28-1.61,5.01-4.05,1-13.9-.82-16.08-5.29-1.46-3-.83-6.37,1.16-8.81,5.74-7.04,14.19,3.15,16.54,9.09Z"/>
    <path d="M132.85,485.38c-4.13-1.82-6.18-10.75-6.02-14.79.06-1.47.35-3.97,2.36-3.97,3.83,0,12.18,6.23,13.8,9.48,2.87,5.79-4.19,11.9-10.13,9.28Z"/>
    <path d="M130.84,384.91c-.54,4.01-6.4,11.59-9.74,13.25-6.23,3.08-12.07-5.78-8.04-11.5,2.61-3.7,12.72-6.04,16.5-4.28,1.22.57,1.47,1.07,1.27,2.54Z"/>
    <path d="M228.54,471.26c3.59.54,10.96,7.26,12.27,10.99,2.49,7.08-6.37,13.29-11.12,7.93-2.78-3.13-5.03-13.45-3.63-17.45.51-1.47,1.08-1.68,2.48-1.47Z"/>
    <path d="M125.83,90.01c1.77-1.03,4.37-2.56,5.26.35,1.27,4.16-.49,15.32-3.83,18.09-5.17,4.29-12.96-1.81-10.67-8.39,1.19-3.43,6.29-8.34,9.24-10.04Z"/>
    <path d="M129.18,190.91c-.14,3.83-3.31,7.66-6.84,7.63-3.77-.03-8.87-6.35-10.7-9.72-2.09-3.86-3.16-6.7,2.06-7.2,5.16-.5,15.76,1.71,15.49,9.3Z"/>
    <path d="M540.83,103.65c-.68,2.27-3.16,8.62-5.35,9.14-1.16.27-2.52-1.51-3.14-2.46-2.47-3.82-5.88-14-2.62-17.91,3.83-4.6,11.45-2.58,12.15,3.92.21,1.94-.48,5.45-1.04,7.32Z"/>
  </g>
</svg>