<?xml version="1.0" encoding="UTF-8"?>
<svg id="Layer_1" xmlns="http://www.w3.org/2000/svg" version="1.1" viewBox="0 0 792 612">
  <!-- Generator: Adobe Illustrator 29.4.0, SVG Export Plug-In . SVG Version: 2.1.0 Build 152)  -->
  <defs>
    <style>
      .st0 {
        fill: none;
      }

      .st1 {
        stroke: #2e3192;
        stroke-miterlimit: 10;
      }

      .st1, .st2 {
        fill: #fff;
      }

      .st3 {
        fill: #cfd0d0;
      }

      .st4 {
        fill: #f48583;
      }

      .st5 {
        fill: #3e3534;
      }

      .st6 {
        fill: #f2a6a2;
      }

      .st7 {
        fill: #b8647f;
      }

      .st8 {
        fill: #fbfbfb;
      }

      .st9 {
        fill: #e289a0;
      }
    </style>
  </defs>
  <path class="st1" d="M67.81,178.71"/>
  <g>
    <path class="st6" d="M128.31,413.31l.6-283.82c0-11.22,8.55-20.32,19.1-20.32l372.41,1.02c10.41,0,18.87-8.86,19.09-19.87,0-.3-.02-.6-.06-.89l.26-5.51c-.03-.2-.22-17-.28-17.2-2.48-8.58-10.25-8.46-16.81-8.38l-464.3,1.41c-10.55,0-19.11,9.11-19.1,20.34l.33,425.95c0,11.22,8.56,20.31,19.1,20.31h460.29c10.55,0,19.1-9.1,19.1-20.32l.89-51.03c0-11.22-8.55-20.32-19.1-20.32l-372.41-1.02c-10.55,0-19.1-9.1-19.1-20.32Z"/>
    <path class="st4" d="M126.61,413.3c.25-69.37-.35-155.68-.83-224.57,0,0-.54-44.91-.54-44.91,0,0-.13-11.23-.13-11.23-.12-4.13,0-8.59,1.63-12.5,3.16-8.5,11.51-15.02,20.78-15.22,0,0,45.01-.78,45.01-.78,102.81-1.71,211.63-4.67,314.41-7.78,0,0,11.23-.33,11.23-.33,0,0,1.4-.04,1.4-.04,0,0,.7-.02.7-.02,0,0,.17,0,.17,0,2.54-.43,4.02-3.57,3.7-5.88,0,0,0,.41,0,.41,0,.52.04.94.08,1.28,0,0-.16-3.05-.16-3.05l.18-5.51s.16,3.06.16,3.06c-.31-2.61-.13-2.17-.21-3.02,0,0-.03-.99-.03-.99,0,0-.06-1.94-.06-1.94-.08-3.94-.26-7.86-.35-11.45,0,0-.03-.9-.03-.9,0,0-.02-.35-.02-.35-.27-1.87.42,3.73.59,3.51-.03.03-.04.09,0,.28.07.32.41,1.07,1.03,1.75.59.7,1.39,1.23,1.79,1.46.44.24.48.28.18.3-2.89.2-9.74.46-12.84.58-150.79,6.12-302.51,11.48-453.33,13.76,0,0-1.92.03-1.92.03,0,0-.48,0-.48,0-.08,0-.5,0-.3,0,2.42.05,5.3-.93,7.04-2.37,2.17-1.78,3.52-4.11,3.61-6.8,0,0,0,.76,0,.76,0,0,.04,3.84.04,3.84.67,64.6.95,134.83.62,199.74-.28,69.75-1.17,145.23-2.61,215.1,0,0-.08,3.84-.08,3.84,0,0-.04,1.92-.04,1.92,0,0-.01.48-.01.48,0,.24,0,.22,0,.14-.1-.76-.3-1.53-.72-2.31-.88-2.11-4.54-4.26-7.41-4.04-.04,0-.22,0-.16.01,0,0,.96.02.96.02,113.72,2.68,246.79,7.55,361.06,11.74,19.84.63,72.88,2.68,92.19,3.32,0,0,6.65.24,6.65.24.95,0,1.9-.19,2.86-.62,2.88-1.22,5.2-4.94,5.25-8.37,0,0,.03-.47.03-.47,0,0,.05-.96.05-.96l.41-7.68s.82-15.36.82-15.36c.18-5.54,1.03-17.79,1.23-23.04,0,0,.19-3.7.19-3.7.21-3.82-1.53-7.82-4.48-10.16-1.81-1.46-3.84-2.23-6.15-2.36,0,0-3.84-.12-3.84-.12-69.21-2.18-145.62-3.92-215.1-5.13-34.73-.72-88.55-1.03-122.91-1.35,0,0-30.75-.19-30.75-.19-2.81-.04-5.62-.7-8.16-1.9-7.66-3.55-12.49-11.9-12.37-20.22h0ZM130.01,413.31c-.2,9.43,7.51,18.63,17.18,18.58,55.3.09,158.77.23,215.08.32,22.12.02,133.83.2,153.64.22,0,0,3.84,0,3.84,0,4.29-.03,8.63,1.38,12.09,3.91,5.84,4.19,9.27,11.2,9.33,18.31.02,4.53-.16,7.48-.17,11.56-.15,7.54-.35,23.16-.49,30.72,0,0-.12,7.68-.12,7.68-.03,1.23,0,2.66-.17,4.08-.75,7.11-4.87,13.79-11.19,17.35-3.1,1.79-6.78,2.71-10.36,2.68-.5-.01-5,.02-5.76,0-100.77.27-236.77.21-338.02.44-31.59,0-84,.14-115.23.15-8.94.48-17.59-5.29-21.03-13.41-2.47-5.03-2.1-10.95-2.11-16.33-.2-135.07-.82-285.85-.48-420.76.36-11.61,10.18-22.38,22.15-22.25.38-.02,2.42,0,2.9,0,117.28.24,322.44-.87,437.87-.76,4.06.06,18.87-.08,23.05-.04,7.01-.25,15.84.3,19.05,8.03.37.73.99,2.5.93,3.24,0,0,.01.5.01.5,0,0,.02.97.02.97,0,0,.2,15.03.2,15.03,0,0,.03.5.03.5,0,0-.27,5.51-.27,5.51,0,0-.03-.5-.03-.5.37,4.32-.86,8.6-2.89,12.37-3.04,5.52-8.57,9.79-14.85,10.9-1.93.38-4.1.37-6.05.34,0,0-11.23-.04-11.23-.04-101.5-.51-257.12-.93-359.26-1.39-6.78.06-12.94,4.82-15.36,11.09-1.41,3.16-1.42,6.88-1.38,10.29-.22,63.76-.68,215.28-.9,280.71h0Z"/>
  </g>
  <path class="st2" d="M175.73,408.91s0,0,0,0"/>
  <path class="st1" d="M141.67,101.19"/>
  <g>
    <path class="st7" d="M44.17,292.85c14.94,6.93,29.67,8.82,46.22,6.74.11-.01.24-.03.37-.05.07,0,.14-.02.21-.03.09-.01.19-.02.28-.03.11-.01.22-.03.34-.04.07,0,.14-.02.21-.03.09-.01.19-.02.29-.04.08,0,.16-.02.24-.03.1-.01.19-.02.29-.04.08-.01.17-.02.26-.03.1-.01.21-.03.32-.04.09-.01.17-.02.26-.04.11-.02.22-.03.33-.05.09-.01.18-.03.27-.04.11-.02.23-.03.34-.05.09-.01.18-.03.27-.04.12-.02.24-.04.36-.06.09-.02.18-.03.28-.05.12-.02.25-.04.37-.06.09-.02.18-.03.26-.05.16-.03.32-.06.48-.09.05-.01.11-.02.16-.03.21-.04.42-.08.63-.13.06-.01.12-.03.18-.04.15-.03.3-.07.45-.1.08-.02.15-.04.23-.06.13-.03.25-.06.38-.09.08-.02.16-.04.24-.07.12-.03.23-.06.34-.09.08-.02.17-.05.25-.07.11-.03.21-.06.32-.1.08-.03.16-.05.24-.08.1-.03.2-.07.3-.1.08-.03.15-.06.23-.08.09-.04.18-.07.27-.11.07-.03.14-.06.21-.09.09-.04.17-.08.25-.12.06-.03.13-.06.19-.09.08-.04.15-.09.23-.13.05-.03.11-.06.16-.1.07-.05.14-.1.21-.14.04-.03.09-.06.13-.09.07-.06.13-.11.19-.17.03-.03.06-.05.08-.08.08-.09.15-.17.21-.27,0-.01.01-.03.02-.04.05-.08.09-.16.12-.24.01-.03.02-.07.02-.1.02-.06.03-.13.04-.19,0-.04,0-.08,0-.12,0-.06,0-.12-.01-.19,0-.04-.02-.09-.04-.14-.02-.06-.04-.13-.07-.19-.02-.05-.05-.1-.07-.15-.04-.07-.07-.13-.12-.2-.03-.05-.07-.1-.11-.15-.05-.07-.11-.14-.18-.21-.05-.05-.1-.11-.16-.16-.06-.06-.12-.11-.19-.17-.78-.66-1.86-.88-2.87-.65-.02,0-.05,0-.07.01-1.01.23-2.02.44-3.03.64-.1.02-.19.04-.29.06-1,.19-1.99.36-2.99.52-.11.02-.23.04-.34.06-.99.15-1.97.29-2.96.42-.12.02-.25.03-.37.05-.98.12-1.95.22-2.93.31-.13.01-.27.02-.4.04-.97.08-1.94.15-2.91.2-.14,0-.28.02-.42.02-.96.05-1.93.08-2.89.09-.14,0-.29,0-.43,0-.96,0-1.92,0-2.88-.02-.14,0-.29,0-.43-.01-.96-.03-1.92-.07-2.87-.13-.14,0-.29-.02-.43-.03-.96-.07-1.91-.15-2.87-.25-.14-.01-.28-.03-.41-.05-.96-.11-1.92-.23-2.87-.37-.13-.02-.26-.04-.39-.06-.96-.15-1.92-.31-2.88-.5-.12-.02-.24-.05-.36-.07-.97-.19-1.93-.4-2.89-.63-.11-.03-.21-.05-.31-.08-.97-.24-1.95-.49-2.91-.77-.09-.02-.17-.05-.26-.08-.98-.29-1.97-.59-2.94-.92-.06-.02-.13-.05-.19-.07-1-.34-1.99-.7-2.98-1.08-.04-.01-.07-.03-.11-.05-1.02-.4-2.03-.82-3.04-1.26-.5-.22-1-.46-1.5-.7-.05-.02-.1-.05-.15-.07-.47-.23-.94-.47-1.41-.72-.07-.04-.14-.07-.21-.11-.03-.01-.05-.03-.08-.04v4.78c.22.11.46.23.7.34Z"/>
    <g>
      <path class="st0" d="M101.85,294.04s-.07-.05-.1-.07c.06.05.13.1.19.15-.03-.03-.05-.05-.09-.08Z"/>
      <path class="st7" d="M44.17,291.42c14.94,4.99,29.67,6.35,46.22,4.85.11-.01.24-.02.37-.03.07,0,.14-.01.21-.02.09,0,.19-.02.28-.02.11,0,.22-.02.34-.03.07,0,.14-.01.21-.02.09,0,.19-.02.29-.03.08,0,.16-.01.24-.02.1,0,.19-.02.29-.03.08,0,.17-.02.26-.02.1,0,.21-.02.32-.03.09,0,.17-.02.26-.03.11-.01.22-.02.33-.03.09,0,.18-.02.27-.03.11-.01.23-.02.34-.04.09,0,.18-.02.27-.03.12-.01.24-.03.36-.04.09-.01.18-.02.28-.03.12-.01.25-.03.37-.05.09-.01.18-.02.26-.03.16-.02.32-.04.48-.06.05,0,.11-.01.16-.02.21-.03.42-.06.63-.09.06,0,.12-.02.18-.03.15-.02.3-.05.45-.07.08-.01.15-.03.23-.04.13-.02.25-.04.38-.07.08-.02.16-.03.24-.05.12-.02.23-.04.34-.07.08-.02.17-.04.25-.05.11-.02.21-.05.32-.07.08-.02.16-.04.24-.06.1-.02.2-.05.3-.07.08-.02.15-.04.23-.06.09-.03.18-.05.27-.08.07-.02.14-.04.21-.06.09-.03.17-.06.25-.09.06-.02.13-.04.19-.07.08-.03.15-.06.23-.09.05-.02.11-.05.16-.07.07-.03.14-.07.21-.1.04-.02.09-.04.13-.07.07-.04.13-.08.19-.12.03-.02.06-.04.08-.06.08-.06.15-.13.21-.19,0,0,.01-.02.02-.03.05-.06.09-.11.12-.17.01-.02.02-.05.02-.07.02-.05.03-.09.04-.14,0-.03,0-.06,0-.09,0-.04,0-.09-.01-.14,0-.03-.02-.07-.04-.1-.02-.05-.04-.09-.07-.14-.02-.03-.05-.07-.07-.11-.04-.05-.07-.09-.12-.14-.03-.04-.07-.07-.11-.11-.05-.05-.11-.1-.18-.15-.05-.04-.1-.08-.16-.12-.06-.04-.12-.08-.19-.12-.78-.47-1.86-.63-2.87-.47-.02,0-.05,0-.07.01-1.01.16-2.02.32-3.03.46-.1.01-.19.03-.29.04-1,.14-1.99.26-2.99.38-.11.01-.23.03-.34.04-.99.11-1.97.21-2.96.3-.12.01-.25.02-.37.03-.98.09-1.95.16-2.93.22-.13,0-.27.02-.4.03-.97.06-1.94.11-2.91.14-.14,0-.28.01-.42.02-.96.03-1.93.05-2.89.06-.14,0-.29,0-.43,0-.96,0-1.92,0-2.88-.01-.14,0-.29,0-.43,0-.96-.02-1.92-.05-2.87-.1-.14,0-.29-.01-.43-.02-.96-.05-1.91-.11-2.87-.18-.14-.01-.28-.02-.41-.03-.96-.08-1.92-.16-2.87-.27-.13-.01-.26-.03-.39-.04-.96-.11-1.92-.22-2.88-.36-.12-.02-.24-.03-.36-.05-.97-.14-1.93-.29-2.89-.45-.11-.02-.21-.04-.31-.06-.97-.17-1.95-.35-2.91-.55-.09-.02-.17-.04-.26-.06-.98-.21-1.97-.43-2.94-.66-.06-.02-.13-.03-.19-.05-1-.24-1.99-.5-2.98-.78-.04-.01-.07-.02-.11-.03-1.02-.29-2.03-.59-3.04-.91-.5-.16-1-.33-1.5-.5-.05-.02-.1-.03-.15-.05-.47-.17-.94-.34-1.41-.52-.07-.03-.14-.05-.21-.08-.03,0-.05-.02-.08-.03v3.44c.22.08.46.17.7.25Z"/>
      <path class="st9" d="M125.33,290c-.36-1.75-1.24-2.53-1.39-2.74l-.82-1.53c-2.09-2.73-5.21-5.87-9.05-6.27-.63-.07-4.22.23-4.85.3-12.25,1.38-21.58,2.19-33.84,3.43-6.89.91-18.96-2.64-20.33-3.05-.01,0-2.21-.72-2.22-.72l-.6-.16c-5.58-1.71-5.49-1.89-8.72-3.55l-.04,12.53s.05.03.08.04c.07.03.14.07.21.1.47.22.94.44,1.41.65.05.02.1.04.15.06.5.22,1,.43,1.5.63,1.01.4,2.02.78,3.04,1.14.04.01.07.03.11.04.99.35,1.98.67,2.98.98.06.02.13.04.19.06.98.3,1.96.57,2.94.83.09.02.17.05.26.07.97.25,1.94.48,2.91.7.11.02.21.05.31.07.96.21,1.92.4,2.89.57.12.02.24.04.36.06.96.17,1.92.32,2.88.45.13.02.26.04.39.05.95.13,1.91.24,2.87.34.14.01.28.03.41.04.95.09,1.91.17,2.87.23.14,0,.28.02.43.03.96.06,1.91.1,2.87.12.14,0,.29,0,.43.01.96.02,1.92.03,2.88.02.14,0,.29,0,.43,0,.96-.01,1.93-.04,2.89-.08.14,0,.28-.01.42-.02.97-.05,1.94-.11,2.91-.18.13-.01.27-.02.4-.03.98-.08,1.95-.17,2.93-.28.12-.01.25-.03.37-.04.99-.11,1.97-.24,2.96-.38.11-.02.23-.03.34-.05,1-.14,1.99-.3,2.99-.47.1-.02.19-.03.29-.05,1.01-.18,2.02-.37,3.03-.58.02,0,.05,0,.07-.01,1.01-.21,2.1,0,2.87.59.03.03.07.05.1.07.03.03.06.05.09.08.06.05.11.1.16.15.06.06.12.13.18.19.04.05.08.09.11.14.05.06.08.12.12.18.03.04.05.09.07.13.03.06.05.12.07.17.01.04.03.08.04.12.01.06.01.11.01.17,0,.04,0,.07,0,.11,0,.06-.02.12-.04.18,0,.03-.01.06-.02.09-.03.07-.07.15-.12.22,0,.01-.01.02-.02.04-.06.08-.13.16-.21.24-.03.02-.06.05-.08.07-.06.05-.12.11-.19.16-.04.03-.09.06-.13.09-.07.04-.13.09-.21.13-.05.03-.11.06-.16.09-.07.04-.15.08-.23.12-.06.03-.12.06-.19.09-.08.04-.16.07-.25.11-.07.03-.14.05-.21.08-.09.03-.18.07-.27.1-.07.03-.15.05-.23.08-.1.03-.2.06-.3.09-.08.02-.16.05-.24.07-.1.03-.21.06-.32.09-.08.02-.16.04-.25.07-.11.03-.23.06-.34.09-.08.02-.16.04-.24.06-.12.03-.25.06-.38.08-.08.02-.15.03-.23.05-.15.03-.3.06-.45.09-.06.01-.12.02-.18.04-.21.04-.42.08-.63.12-.05,0-.11.02-.16.03-.16.03-.32.05-.48.08-.09.01-.18.03-.26.04-.12.02-.25.04-.37.06-.09.01-.19.03-.28.04-.12.02-.24.04-.36.05-.09.01-.18.03-.27.04-.11.02-.23.03-.34.05-.09.01-.18.02-.27.04-.11.01-.22.03-.33.04-.09.01-.17.02-.26.03-.11.01-.21.03-.32.04-.09.01-.17.02-.26.03-.1.01-.2.02-.29.03-.08,0-.16.02-.24.03-.1.01-.2.02-.29.03-.07,0-.14.02-.21.02-.12.01-.23.03-.34.04-.1.01-.19.02-.28.03-.07,0-.15.02-.21.02-.13.01-.26.03-.37.04-16.55,1.89-31.28.18-46.22-6.1-.24-.1-.48-.21-.71-.31l-.03,9.9c9.19,3.52,18.05,7.68,27.92,8.71,13.51,1.4,25.22,2.64,37.69-3.07,1.88-.86,6.51-3.3,8.72-5.43,1.53-1.48,3.78-3.79,3.88-3.94.82-1.36,2.26-3,2.5-3.65.1-.28,1.15-2.44,1.18-2.67.13-.85.13-1.9.02-2.43Z"/>
    </g>
  </g>
  <line class="st0" x1="826.85" y1="117.34" x2="1202.91" y2="115.73"/>
  <g>
    <g>
      <path class="st8" d="M488.44,124.62c2.7-3.79,16.84-29.34,14.48-32.42-3.42-4.45-28.67.99-33.84,1.65-9.78,1.24-16.78-2.66-17.38,8.94.51,1.23,1.05,2.43,1.61,3.6,3.19,5.02,6.72,10.95,10.56,16.44,2.95,3.73,6.31,7.61,10.18,11.96h0c7.15-.62,11.2-5.69,14.39-10.17Z"/>
      <path class="st5" d="M480.47,82.23c-11.15,1.49-22.93,1.77-35.1,1.07l-2.41,11.13c1.89-1.21,7.32,8.92,9.37,12.57,5.39,10.65,18.18,32.52,25.69,34.08,9.8,2.04,24.43-13.76,28.99-19.32,6.58-8.03,10.04-14.48,14.62-23.3l1.26-3.97,2.63-19.25c-15.47,4.43-31.6,5.2-45.05,7ZM521.7,87.96c-.62,2.05-1.32,4.18-1.98,6.06-.37,1.08.36-1.8.07-.9-.14.45-.28.86-.41,1.23-.25.74-.46,1.32-.6,1.67-.24.59-.55,1.27-.92,2.05-.09.19-.19.39-.29.6-.61,1.23-1.37,2.65-2.25,4.21-.15.26-.3.52-.45.79-.31.53-.63,1.08-.96,1.64-.5.84-1.03,1.7-1.58,2.59-.74,1.18-1.52,2.4-2.34,3.64-.41.62-.83,1.24-1.26,1.87-1.5,2.19-3.11,4.43-4.8,6.61-1.93,2.5-3.95,4.93-6.03,7.17-.52.56-1.04,1.11-1.56,1.64-1.31,1.34-2.63,2.58-3.96,3.72-.79.68-1.59,1.31-2.38,1.9-.26.2-.53.39-.79.57-.53.37-1.05.71-1.58,1.03-1.57.96-3.12,1.7-4.63,2.16-1.76.54-3.46.69-5.08.38-3.54-.68-3.13-3.16-3.87-3.81h0s0,0,0,0c-3.59-3.14-6.99-7.4-10.18-11.96-3.84-5.49-7.38-11.42-10.56-16.44-.14-.22-.28-.44-.42-.66-.47-.91-.85-1.76-1.21-2.77-.66-1.84-3.85-8.19-5.04-12.49-.32-1.17-.5-2.19-.43-2.92.02-.24.07-.46.15-.63.08-.18.19-.32.33-.41.12-.08.75-.13,1.7-.14.32,0,.67,0,1.06,0,.58,0,1.22,0,1.91.02.46,0,.94.02,1.44.03.25,0,.5.01.75.02.76.02,1.55.04,2.34.06.26,0,.53.01.79.02,1.06.03,2.11.05,3.1.07.5.01.98.02,1.44.03.93.02,1.77.03,2.48.03.36,0,.68,0,.96,0,.28,0,.53-.02.73-.03,3.57-.23,7.13-.55,10.66-.95,7.07-.81,14.04-1.95,20.82-3.37,3.39-.71,6.73-1.5,10.02-2.35,2.22-.57,15.94-1.88,16.53-1.15.51.63-.16,3.78-1.22,7.47-.16.57-.33,1.15-.51,1.74Z"/>
      <path class="st3" d="M523.43,78.76c-.59-.74-14.31.57-16.53,1.15-3.28.85-6.63,1.64-10.02,2.35-6.78,1.43-13.75,2.57-20.82,3.37-3.53.4-7.09.72-10.66.95-.2.01-.44.02-.73.03-.28,0-.61,0-.96,0-.71,0-1.56,0-2.48-.03-.46,0-.95-.02-1.44-.03-.99-.02-2.05-.05-3.1-.07-.26,0-.53-.01-.79-.02-.79-.02-1.58-.04-2.34-.06-.25,0-.51-.01-.75-.02-.5-.01-.98-.02-1.44-.03-.69-.01-1.33-.02-1.91-.02-.38,0-.74,0-1.06,0-.95.01-1.57.06-1.7.14-.14.1-.25.24-.33.41-.08.18-.13.39-.15.63-.07.73.11,1.75.43,2.92,1.19,4.3,4.38,10.65,5.04,12.49,0-.06,0-.12.01-.18.6-11.59,7.6-7.7,17.38-8.94,5.17-.66,30.43-6.1,33.84-1.65,2.37,3.08-11.77,28.63-14.48,32.42-3.19,4.47-7.23,9.55-14.39,10.17h0,0c.74.65.33,3.13,3.87,3.81,1.61.31,3.32.15,5.08-.38,1.51-.46,3.06-1.2,4.63-2.16.52-.32,1.05-.67,1.58-1.03.26-.18.53-.37.79-.57.79-.59,1.59-1.22,2.38-1.9,1.32-1.13,2.65-2.38,3.96-3.72.52-.53,1.04-1.08,1.56-1.64,2.07-2.24,4.1-4.67,6.03-7.17,1.69-2.18,3.3-4.42,4.8-6.61.43-.63.85-1.25,1.26-1.87.82-1.24,1.6-2.46,2.34-3.64.55-.89,1.08-1.75,1.58-2.59.33-.56.65-1.11.96-1.64.15-.27.3-.53.45-.79.88-1.56,1.64-2.98,2.25-4.21.1-.21.2-.4.29-.6.38-.78.68-1.47.92-2.05.14-.35.35-.93.6-1.67.13-.37.26-.79.41-1.23.29-.9-.44,1.98-.07.9.65-1.89,1.35-4.01,1.98-6.06.18-.59.35-1.17.51-1.74,1.06-3.69,1.73-6.83,1.22-7.47Z"/>
    </g>
    <path class="st0" d="M201.28,100.92h0c.09.08.2.17.31.26-.12-.09-.22-.17-.31-.26Z"/>
    <g>
      <path class="st8" d="M292.58,116.72c7.33-19.92-1.87-15.47-17.4-14.32-6.14.45-14.27-2.52-16.77,4.93,4.16,9.22,9.2,16.8,15.57,24.16,1.48,1.2,4.16,2.87,5.1,3.14,5.03-1.75,11.61-12.77,13.5-17.9Z"/>
      <path class="st8" d="M279.18,134.65s.02,0,.04-.01h-.11s.05,0,.08.01Z"/>
      <path class="st5" d="M250.76,92.03l-.34,4.6c.57-.33,1.05-.56,1.39-.64,5.75,13.45,10.13,31.42,23.52,39.28.75.56,1.6,1.04,2.45,1.35.72.42,2.2.87,4.91,1.31,6.81,1.09,19.97-20.01,22.81-26.03,2.24-4.76,5.51-17.31,6.84-17.23,0,0,1.24,2.13,1.24,2.13l-3.15-7.4c-20.11,2.64-40.57,3.12-59.68,2.63ZM300.41,115.39c-.61,1.67-1.81,2.98-2.5,4.38,0,0,0,0,0,0-1.39,2.84-3.89,5.77-6.88,8.3-3.54,3.27-7.13,5.86-7.92,6.36-.35.22-.48.38-1.3.5l-2.59-.31s-.02,0-.04.01c-.02,0-.05-.02-.08-.02h-.03s0,0,0,0c-.94-.28-3.62-1.95-5.1-3.14-6.38-7.36-11.41-14.93-15.57-24.16-.2-.44-1.09-2.11-2.03-4.09-.23-.49-.47-1.01-.7-1.53-.15-.34-.3-.69-.45-1.04s-.28-.69-.41-1.02c-.13-.33-.25-.66-.36-.98-.22-.63-.38-1.22-.48-1.73-.16-.89-.11-1.54.3-1.75.83-.44,4.07-.62,8.6-.71,1.7-.03,3.58-.05,5.58-.07,1.33-.01,2.72-.02,4.14-.03s2.88-.02,4.36-.03c2.21-.02,4.47-.04,6.7-.08,1.49-.02,2.97-.06,4.43-.09,2.18-.06,4.31-.14,6.31-.25.67-.04,1.32-.07,1.96-.12,1.28-.08,2.5-.18,3.64-.3,1.71-.17,3.24-.38,4.53-.63.86-.17,1.61-.35,2.24-.56.31-.1.6-.22.85-.33,4.33,1.2-4.12,19.94-7.22,23.39Z"/>
      <path class="st3" d="M307.63,92c-.25.12-.53.23-.85.33-.63.21-1.38.4-2.24.56-1.29.25-2.82.46-4.53.63-1.14.11-2.36.21-3.64.3-.64.04-1.29.08-1.96.12-2.01.11-4.13.19-6.31.25-1.46.04-2.94.07-4.43.09-2.24.04-4.49.06-6.7.08-1.48.01-2.93.02-4.36.03s-2.81.02-4.14.03c-2,.02-3.88.04-5.58.07-4.53.09-7.78.27-8.6.71-.41.21-.47.86-.3,1.75.09.51.26,1.1.48,1.73.11.32.23.64.36.98.13.33.27.68.41,1.02s.29.69.45,1.04c.23.52.47,1.03.7,1.53.94,1.98,1.83,3.66,2.03,4.09,2.5-7.44,10.63-4.47,16.77-4.93,15.53-1.14,24.73-5.6,17.4,14.32-1.89,5.13-8.46,16.15-13.5,17.9,0,0,0,0,0,0h.03s.11.02.11.02l2.59.31c.82-.12.95-.28,1.3-.5.79-.5,4.38-3.09,7.92-6.36,2.78-2.57,5.53-5.57,6.88-8.3,0,0,0,0,0,0,.69-1.4,1.88-2.72,2.5-4.38,3.1-3.46,11.55-22.2,7.22-23.39Z"/>
    </g>
    <g>
      <path class="st0" d="M221.42,127.22s.03,0,.04-.01c-.02-.03-.04-.05-.06-.08,0,.03.01.07.02.09Z"/>
      <path class="st0" d="M217.39,111.82c.02-.07.04-.14.07-.21-.12-.23-.13-.14-.07.21Z"/>
      <path class="st8" d="M227.47,109.38c-2.45-5.16-20.37-6.99-26.41-4.58.38.72.85,1.65,1.39,2.73.27.54.56,1.11.87,1.71s.64,1.23.98,1.87c1.03,1.93,2.21,4.03,3.49,6.06.21.34.43.67.65,1.01,2.65,4,5.71,7.56,8.92,8.81,1.33.52,2.69.64,4.05.23,0-.03-.01-.06-.02-.09.02.03.04.05.06.08,2.34-.72,3.64-1.62,4.77-2.7,1.23-1.46,3.41-10.56,1.24-15.12ZM217.39,111.82c-.07-.35-.05-.44.07-.21-.02.07-.05.14-.07.21Z"/>
      <path class="st5" d="M196.73,92.68c-.96-.03-2.61-.17-4.73-.37l-.51,2.84c.36-.07.73-.1,1.13-.02,2.37.45,12.52,33.6,26.53,35.95,5.38.9,19.66-16.7,25.94-27.64,2.31-2.4,5.12-5.28,7.02-6.75l-.76-5.32c-19.13,1.53-37.63,1.88-54.62,1.31ZM244.66,102.07c-.48.84-1.13,1.48-2.01,2.77-2.63,3.88-5.23,8.48-8.41,12.01l-7.89,7.55-.04.04-.08.08s0,0,0,0c-1.14,1.08-2.43,1.98-4.77,2.7-.01,0-.03,0-.04.01-1.36.42-2.72.29-4.05-.23-3.2-1.25-6.27-4.81-8.92-8.81-.22-.33-.44-.67-.65-1.01-1.29-2.03-2.46-4.13-3.49-6.06-.34-.64-.67-1.27-.98-1.87s-.6-1.17-.87-1.71c-.54-1.07-1.01-2.01-1.39-2.73-.1-.19-.61-.83-1.26-1.69-.33-.43-.69-.92-1.05-1.44-.55-.77-1.11-1.61-1.56-2.41-.3-.54-.56-1.06-.74-1.54,0,0,0,0,0,0-.45-1.2-.41-2.13.61-2.37h0c.13.07.28.13.44.2s.33.12.52.18c.37.11.79.21,1.25.29.93.17,2.03.3,3.27.38,1,.07,2.08.11,3.24.13s2.39.02,3.67,0c.64,0,1.3-.02,1.97-.04,1.34-.04,2.72-.09,4.13-.15,2.11-.1,4.29-.22,6.47-.35,2.18-.14,4.36-.28,6.48-.43,2.12-.15,4.19-.3,6.13-.43.65-.05,1.28-.09,1.9-.13,1.86-.13,3.58-.23,5.1-.31,1.01-.05,1.94-.09,2.76-.11,2.05-.05,3.43.01,3.87.25.44.23-3.02,6.22-3.61,7.25Z"/>
      <path class="st3" d="M244.4,94.56c-.82.02-1.75.06-2.76.11-1.52.08-3.24.18-5.1.31-.62.04-1.26.09-1.9.13-1.95.14-4.01.28-6.13.43-2.12.15-4.3.3-6.48.43-2.18.14-4.35.26-6.47.35-1.41.06-2.79.12-4.13.15-.67.02-1.32.03-1.97.04-1.29.02-2.52.02-3.67,0s-2.24-.06-3.24-.13c-1.24-.08-2.35-.21-3.27-.38-.46-.09-.88-.18-1.25-.29-.19-.06-.36-.11-.52-.18s-.31-.13-.44-.2c-1.03.24-1.06,1.17-.61,2.37,0,0,0,0,0,0,.18.48.44,1,.74,1.54.46.8,1.01,1.64,1.56,2.41.37.52.73,1,1.05,1.44.65.86,1.16,1.5,1.26,1.69,6.04-2.41,23.95-.58,26.41,4.58,2.17,4.56-.01,13.66-1.24,15.12,0,0,0,0,0,0l.08-.08.04-.04,7.89-7.55c3.18-3.53,5.78-8.13,8.41-12.01.87-1.29,1.53-1.93,2.01-2.77.59-1.03,4.04-7.02,3.61-7.25-.44-.24-1.82-.3-3.87-.25Z"/>
    </g>
    <g>
      <path class="st5" d="M377.1,85.79l-.56,8.41c.42,8.9,17.97,45.39,29.6,45.35,3.18-.01,7.31-3.48,9.35-5.31.88-.78,1.61-1.44,2.23-2,13.34-10.1,22.09-24.06,25.75-37.62l2.47-11.52c-22.16,3.51-45.58,4.12-68.85,2.69ZM421.72,127.5c-2.22,2.14-6.66,5.82-7.88,6.74-1.08.81-3.14,2.37-5.56,3.2-1.69,1.04-3.43,1.25-5.17.26-3.47-1.94-8.05-10.36-10.48-13.95-.97-1.44-1.89-2.91-2.76-4.41s-1.69-3.03-2.46-4.57c-2.7-5.39-4.78-10.96-6.3-16.24-.08-.27-.25-.75-.48-1.36-.15-.4-.32-.86-.5-1.35-.63-1.72-1.38-3.82-1.67-5.27-.17-.83-.19-1.45.05-1.66l65.2-1.76c-3.73,15.05-8.92,27.78-21.97,40.35Z"/>
      <path class="st3" d="M420.85,127.25c13.5-11.66,19.12-25.05,22.84-40.1l-65.2,1.76c-.23.21-.21.83-.05,1.66.29,1.45,1.04,3.55,1.67,5.27.18.49.35.95.5,1.35.22.6.4,1.08.48,1.36,1.61-1.47,1.93-3.02,4.6-3.76,2.3-.63,19.81-1.51,23.21-1.56,16.23-.23,18.54,2.7,14.57,15-.07.22-.15.46-.23.71-.02.05-.03.09-.05.14-2.27,6.98-8.21,24.23-14.94,28.36,2.42-.83,4.49-2.4,5.56-3.2,1.23-.92,4.68-4.98,7.01-6.99Z"/>
      <path class="st8" d="M423.21,109.08s.03-.1.05-.14c.08-.24.16-.48.23-.71,3.96-12.3,1.66-15.23-14.57-15-3.4.05-20.92.92-23.21,1.56-2.67.74-2.99,2.29-4.6,3.76,1.51,5.27,3.6,10.84,6.3,16.24.77,1.54,1.59,3.07,2.46,4.57s1.79,2.97,2.76,4.41c2.43,3.59,5.18,6.95,8.27,9.91,12.94,2.4,19.6-16.25,22.32-24.58Z"/>
      <path class="st8" d="M404.49,137.95c-1.1-.12-2.62-3.34-3.6-4.28-3.09-2.95-5.84-6.32-8.27-9.91,2.43,3.59,7.01,12.01,10.48,13.95,1.74.99,3.48.77,5.17-.26-1.2.41-2.49.64-3.78.5Z"/>
      <path class="st8" d="M423.21,109.08c-2.71,8.33-9.38,26.98-22.32,24.58.98.94,2.5,4.16,3.6,4.28,1.3.14,2.58-.09,3.78-.5,6.73-4.13,12.67-21.38,14.94-28.36Z"/>
    </g>
    <g>
      <path class="st0" d="M155.49,112.25c-1-2-1.84-3.91-2.51-5.4.69,1.53,1.53,3.43,2.51,5.4Z"/>
      <path class="st0" d="M180.6,112.34s.03-.05.04-.07c0,0-.02.04-.05.07,0,0,0,0,0,0,0,0,0,0,0,0Z"/>
      <path class="st0" d="M152.29,105.44c.09.14.16.27.21.37.01.03.03.06.04.09-.01-.03-.03-.06-.04-.09-.05-.11-.12-.24-.21-.37Z"/>
      <path class="st0" d="M168.69,123.58c2.02-.18,3.38-1,4.53-2.14-1.38,1.11-2.83,1.81-4.53,2.14Z"/>
      <path class="st0" d="M180.65,112.27s0,0-.04.07c1.65-2.49,6.95-10.77,6-14.07.94,3.27-4.28,11.43-5.96,14Z"/>
      <path class="st5" d="M148.79,99.06c-3.9,3.39,7.6,29.05,16.86,28.5,10.95-.65,18.02-12.97,21.67-20.45,1.08-2.2,1.46-10.15,5.62-11.72l.13-2.69c-13.24,1.71-42.64,4.93-44.29,6.36ZM186.47,97.93c.05.09.08.2.12.3,0,.01.01.02.01.04.95,3.3-4.35,11.58-6,14.07,0,0,0,0,0,0-1.43,2.16-1.79,2.85-3.46,4.96,0,0,0,0,0,0-.63.83-1.2,1.53-1.58,1.87-.79.89-1.56,1.64-2.34,2.26-1.15,1.14-2.52,1.96-4.53,2.14-.61.12-1.24.2-1.92.23-3.91.13-7.3-4.28-9.92-8.99-.01-.03-.03-.05-.04-.08-.22-.39-.43-.78-.64-1.17-.21-.4-.41-.8-.61-1.19-.02-.04-.04-.09-.07-.13-.98-1.97-1.83-3.88-2.51-5.4-.15-.34-.3-.65-.43-.95-.01-.03-.03-.06-.04-.09-.05-.11-.12-.24-.21-.37-.63-.97-2.04-2.54-1.93-2.82.6-1.49,33.53-6.06,35.02-5.6.13.04.25.09.36.15.04.02.06.04.1.07.07.04.14.09.2.14.04.04.08.08.12.12.04.04.09.08.13.13.05.06.08.13.12.19.02.04.05.07.06.1Z"/>
      <polygon class="st5" points="180.6 112.34 180.6 112.34 180.6 112.34 180.6 112.34"/>
      <path class="st8" d="M180.6,112.34c-.31.47-2.02,3.06-3.46,4.97,0,0,0,0,0,0,1.67-2.11,2.03-2.8,3.46-4.96,0,0,0,0,0,0,0,0,0,0,0,0Z"/>
      <path class="st8" d="M175.11,119c.47-2.41.16-5.92-.22-7.32-.42-1.55-1.8-3.67-2.67-4.93-3.31-4.79-12.84-3.98-19.72-.94.01.03.03.06.04.09.14.29.28.61.43.95.67,1.49,1.52,3.4,2.51,5.4.02.04.04.09.07.13.2.39.4.79.61,1.19.21.39.42.78.64,1.17.01.03.03.05.04.08,2.62,4.71,6.01,9.12,9.92,8.99.69-.02,1.32-.11,1.92-.23,1.71-.33,3.15-1.03,4.53-2.14.78-.62,1.55-1.38,2.34-2.26-.36.32-.55.33-.45-.18Z"/>
      <path class="st3" d="M180.6,112.34s0,0,0,0c0,0,0,0,0,0,.04-.06.05-.08.04-.07-.01.02-.03.05-.04.07Z"/>
      <path class="st3" d="M186.16,97.49s-.07-.08-.12-.12c-.06-.05-.13-.09-.2-.14-.03-.02-.06-.05-.1-.07-.11-.06-.23-.11-.36-.15-1.49-.46-34.42,4.11-35.02,5.6-.11.28,1.3,1.85,1.93,2.82.09.14.16.27.21.37,6.88-3.04,16.41-3.85,19.72.94.87,1.26,2.25,3.37,2.67,4.93.38,1.4.69,4.91.22,7.32-.1.51.09.5.45.18.38-.34.95-1.04,1.58-1.87,1.44-1.91,3.15-4.5,3.46-4.97.02-.04.04-.06.05-.07,1.67-2.57,6.9-10.73,5.96-14,0-.01-.01-.03-.01-.04-.03-.11-.07-.21-.12-.3-.02-.04-.04-.07-.06-.1-.04-.07-.07-.13-.12-.19-.04-.05-.08-.09-.13-.13Z"/>
    </g>
    <g>
      <path class="st8" d="M357.71,118.36c7.31-23.17-2.69-18.01-19.82-16.73-6.77.51-15.89-2.97-18.35,5.69,4.98,10.75,10.85,19.58,18.2,28.17,1.68,1.4,4.71,3.35,5.77,3.68,5.5-2.02,12.32-14.84,14.2-20.8Z"/>
      <path class="st8" d="M343.62,139.2s.03,0,.04-.01l-.13-.02s.06.02.09.03Z"/>
      <path class="st5" d="M310.47,89.49l-.19,5.36c.62-.38,1.02,2.66,1.39,2.57,6.9,15.68,12.59,33.3,27.72,42.49.86.66,1.81,1.22,2.77,1.58.81.5,2.46,1.02,5.48,1.53,7.58,1.29,21.28-23.24,24.18-30.24,2.29-5.53,3.2-11.44,5.92-16.69,0,0,0,0,0,0l-.63-10.32c-22.13,3.02-45.49,4.33-66.63,3.71ZM366.32,116.84c-.61,1.94-1.89,3.47-2.59,5.1,0,0,0,0,0,0-1.43,3.31-4.07,6.7-7.27,9.65-3.78,3.8-7.65,6.81-8.5,7.39-.38.26-.52.44-1.42.58l-2.87-.37s-.03,0-.04.01c-.02,0-.06-.02-.09-.03h-.03s0,0,0,0c-1.05-.32-4.08-2.28-5.77-3.68-7.35-8.58-13.22-17.42-18.2-28.17-.24-.51-1.29-2.47-2.41-4.77-.28-.58-.56-1.17-.84-1.78-.18-.4-.36-.81-.54-1.21s-.34-.8-.5-1.19c-.16-.39-.3-.77-.43-1.14-.26-.74-.47-1.42-.6-2.02-.22-1.04-.18-1.79.26-2.04.9-.5,4.48-.71,9.49-.8,1.88-.03,3.95-.05,6.16-.07,1.47,0,3.01-.01,4.58-.02,1.57,0,3.18-.01,4.82-.02,2.45-.01,4.94-.03,7.41-.07,1.65-.02,3.28-.06,4.89-.1,2.41-.06,4.76-.15,6.97-.27.74-.04,1.46-.08,2.17-.13,1.41-.09,2.75-.2,4.01-.33,1.88-.19,3.56-.43,4.98-.72.94-.19,1.77-.41,2.46-.65.34-.12.65-.25.93-.38,4.83,1.41-3.75,23.2-7.04,27.22Z"/>
      <path class="st3" d="M373.36,89.63c-.27.13-.58.26-.93.38-.69.24-1.51.46-2.46.65-1.42.29-3.1.53-4.98.72-1.25.13-2.6.24-4.01.33-.71.05-1.43.09-2.17.13-2.21.12-4.56.2-6.97.27-1.61.04-3.25.07-4.89.1-2.47.04-4.96.06-7.41.07-1.63,0-3.24.01-4.82.02-1.57,0-3.11.01-4.58.02-2.21.01-4.29.03-6.16.07-5,.09-8.59.3-9.49.8-.44.25-.48,1-.26,2.04.12.59.33,1.28.6,2.02.13.37.28.75.43,1.14.16.39.32.79.5,1.19s.35.81.54,1.21c.28.6.56,1.2.84,1.78,1.12,2.31,2.17,4.26,2.41,4.77,2.46-8.66,11.58-5.18,18.35-5.69,17.12-1.29,27.12-6.44,19.82,16.73-1.88,5.97-8.71,18.78-14.2,20.8,0,0,0,0,0,0h.03s.13.02.13.02l2.87.37c.9-.14,1.04-.33,1.42-.58.86-.58,4.72-3.59,8.5-7.39,2.97-2.99,5.9-6.46,7.27-9.65,0,0,0,0,0,0,.7-1.63,1.97-3.16,2.59-5.1,3.29-4.02,11.87-25.81,7.04-27.22Z"/>
    </g>
  </g>
  <g>
    <g>
      <path class="st8" d="M438.17,425.03c3.34,3.81,21.87,29.6,20.09,32.81-2.57,4.63-28.44-.32-33.66-.87-9.87-1.03-16.06,3.12-18.74-8.72.28-1.28.6-2.51.94-3.73,2.24-5.21,4.66-11.36,7.46-17.07,2.24-3.88,4.86-7.93,7.89-12.48h0c7.16.46,12.06,5.55,16.01,10.05Z"/>
      <path class="st5" d="M483.6,474.64l-6.05-19.63-1.96-4.03c-6.1-8.91-10.67-15.43-18.6-23.48-5.49-5.58-22.75-21.38-32.05-19.06-7.13,1.78-15.8,24.45-19.21,35.48-1.37,3.79-4.9,14.28-6.98,13.09l4.38,11.33c11.87-1.01,23.53-1.01,34.79.25,13.58,1.51,29.62,1.91,45.67,6.06ZM478.35,463.48c1.71,3.75,2.93,6.95,2.54,7.61-.45.77-14.21-.24-16.5-.77-3.39-.79-6.83-1.51-10.3-2.16-6.94-1.29-14.02-2.29-21.13-2.94-3.56-.33-7.12-.57-10.68-.72-.2,0-.44-.01-.72-.01-.28,0-.6,0-.95.01-.7.02-1.53.05-2.44.09-.45.02-.93.04-1.42.06-.98.05-2.01.1-3.04.15-.26.01-.52.03-.78.04-.78.04-1.55.08-2.3.11-.25.01-.5.02-.74.03-.49.02-.96.04-1.41.06-.68.03-1.31.05-1.88.07-.38,0-.73.02-1.04.02-.94,0-1.56-.02-1.7-.1-.16-.1-.29-.24-.4-.41-.11-.18-.2-.39-.26-.64-.2-.75-.21-1.79-.1-3,.4-4.42,2.4-11,2.72-12.9.17-1.04.39-1.91.69-2.86.1-.22.2-.46.29-.68,2.24-5.21,4.66-11.36,7.46-17.07,2.33-4.75,4.92-9.18,7.89-12.48h0,0c.62-.69-.24-3.21,3.13-3.99,1.54-.35,3.24-.23,5.07.27,1.57.43,3.23,1.15,4.95,2.1.57.32,1.15.66,1.74,1.02.29.18.59.37.88.56.89.58,1.78,1.21,2.69,1.89,1.51,1.12,3.04,2.37,4.57,3.7.61.53,1.22,1.08,1.84,1.64,2.45,2.24,4.88,4.68,7.23,7.19,2.06,2.19,4.05,4.44,5.92,6.64.54.63,1.06,1.26,1.58,1.88,1.03,1.25,2.02,2.47,2.96,3.66.7.89,1.38,1.77,2.02,2.61.43.56.84,1.12,1.24,1.65.2.27.39.53.59.8,1.15,1.57,2.15,3,2.97,4.25.14.21.27.41.4.61.51.79.94,1.48,1.28,2.08.2.35.51.94.89,1.7.19.38.4.8.62,1.25.45.91-.79-2.02-.23-.92.98,1.92,2.06,4.07,3.04,6.16.28.6.55,1.19.82,1.76Z"/>
      <path class="st3" d="M480.9,471.09c-.45.77-14.21-.24-16.5-.77-3.39-.79-6.83-1.51-10.3-2.16-6.94-1.29-14.02-2.29-21.13-2.94-3.56-.33-7.12-.57-10.68-.72-.2,0-.44-.01-.72-.01-.28,0-.6,0-.95.01-.7.02-1.53.05-2.44.09-.45.02-.93.04-1.42.06-.98.05-2.01.1-3.04.15-.26.01-.52.03-.78.04-.78.04-1.55.08-2.3.11-.25.01-.5.02-.74.03-.49.02-.96.04-1.41.06-.68.03-1.31.05-1.88.07-.38,0-.73.02-1.04.02-.94,0-1.56-.02-1.7-.1-.16-.1-.29-.24-.4-.41-.11-.18-.2-.39-.26-.64-.2-.75-.21-1.79-.1-3,.4-4.42,2.4-11,2.72-12.9.01.06.03.12.04.18,2.68,11.84,8.87,7.69,18.74,8.72,5.22.54,31.09,5.5,33.66.87,1.78-3.21-16.75-29-20.09-32.81-3.94-4.5-8.85-9.59-16.01-10.05h0c.62-.69-.24-3.21,3.13-3.99,1.54-.35,3.24-.23,5.07.27,1.57.43,3.23,1.15,4.95,2.1.57.32,1.15.66,1.74,1.02.29.18.59.37.88.56.89.58,1.78,1.21,2.69,1.89,1.51,1.12,3.04,2.37,4.57,3.7.61.53,1.22,1.08,1.84,1.64,2.45,2.24,4.88,4.68,7.23,7.19,2.06,2.19,4.05,4.44,5.92,6.64.54.63,1.06,1.26,1.58,1.88,1.03,1.25,2.02,2.47,2.96,3.66.7.89,1.38,1.77,2.02,2.61.43.56.84,1.12,1.24,1.65.2.27.39.53.59.8,1.15,1.57,2.15,3,2.97,4.25.14.21.27.41.4.61.51.79.94,1.48,1.28,2.08.2.35.51.94.89,1.7.19.38.4.8.62,1.25.45.91-.79-2.02-.23-.92.98,1.92,2.06,4.07,3.04,6.16.28.6.55,1.19.82,1.76,1.71,3.75,2.93,6.95,2.54,7.61Z"/>
    </g>
    <g>
      <path class="st8" d="M244.12,436.49c7.78,20.95-1.79,16.46-17.88,15.64-6.36-.32-14.76,3.03-17.41-4.8,4.23-9.89,9.37-18.06,15.9-26.02,1.52-1.31,4.28-3.15,5.25-3.46,5.23,1.73,12.14,13.26,14.14,18.65Z"/>
      <path class="st8" d="M230.08,417.8s.03,0,.04.01l-.12.02s.06-.02.08-.03Z"/>
      <path class="st5" d="M262.86,465.03l3.19-7.94s-1.26,2.29-1.26,2.29c-1.38.11-4.87-13.12-7.24-18.11-3-6.31-16.81-28.37-23.86-27.04-2.8.53-4.33,1.04-5.07,1.51-.88.35-1.75.88-2.53,1.5-13.79,8.68-18.17,27.85-23.99,42.27-.35-.07-.85-.3-1.44-.64l.39,4.88c19.78-1,40.97-1.01,61.81,1.28ZM259.92,462.34c-.26-.12-.56-.23-.88-.33-.65-.21-1.44-.39-2.33-.54-1.34-.23-2.92-.42-4.69-.55-1.18-.09-2.44-.17-3.77-.22-.66-.03-1.34-.05-2.03-.07-2.08-.06-4.28-.09-6.54-.1-1.51,0-3.04,0-4.59.01-2.32.02-4.65.05-6.94.09-1.53.03-3.04.05-4.51.08s-2.91.05-4.29.08c-2.07.03-4.02.06-5.77.07-4.69.02-8.05-.09-8.91-.54-.42-.22-.49-.9-.33-1.85.09-.54.26-1.17.48-1.85.11-.34.23-.69.36-1.05.13-.36.27-.72.42-1.09s.3-.74.46-1.11c.23-.55.48-1.11.71-1.64.95-2.12,1.86-3.92,2.06-4.39,4.23-9.89,9.37-18.06,15.9-26.02,1.52-1.31,4.28-3.15,5.25-3.46,0,0,0,0,0,0h.03s.06-.03.08-.03c.01,0,.03,0,.04.01l2.67-.39c.85.11.99.27,1.35.5.82.51,4.57,3.17,8.26,6.55,3.11,2.61,5.73,5.65,7.2,8.64,0,0,0,0,0,0,.72,1.47,1.98,2.83,2.63,4.59,3.24,3.59,12.16,23.26,7.69,24.64Z"/>
      <path class="st3" d="M259.92,462.34c-.26-.12-.56-.23-.88-.33-.65-.21-1.44-.39-2.33-.54-1.34-.23-2.92-.42-4.69-.55-1.18-.09-2.44-.17-3.77-.22-.66-.03-1.34-.05-2.03-.07-2.08-.06-4.28-.09-6.54-.1-1.51,0-3.04,0-4.59.01-2.32.02-4.65.05-6.94.09-1.53.03-3.04.05-4.51.08s-2.91.05-4.29.08c-2.07.03-4.02.06-5.77.07-4.69.02-8.05-.09-8.91-.54-.42-.22-.49-.9-.33-1.85.09-.54.26-1.17.48-1.85.11-.34.23-.69.36-1.05.13-.36.27-.72.42-1.09s.3-.74.46-1.11c.23-.55.48-1.11.71-1.64.95-2.12,1.86-3.92,2.06-4.39,2.66,7.83,11.05,4.48,17.41,4.8,16.09.82,25.66,5.31,17.88-15.64-2-5.4-8.91-16.92-14.14-18.65,0,0,0,0,0,0h.03s.12-.02.12-.02l2.67-.39c.85.11.99.27,1.35.5.82.51,4.57,3.17,8.26,6.55,2.9,2.66,5.78,5.77,7.2,8.64,0,0,0,0,0,0,.72,1.47,1.98,2.83,2.63,4.59,3.24,3.59,12.16,23.26,7.69,24.64Z"/>
    </g>
    <g>
      <path class="st5" d="M403.22,468.27l-2.66-12.16c-3.91-14.3-13.11-28.89-27.01-39.26-.65-.58-1.41-1.25-2.33-2.06-2.13-1.89-6.44-5.46-9.73-5.4-12.05.25-29.88,39.41-30.23,48.86l.66,8.91c24.08-2.11,48.33-2.06,71.31,1.11ZM400.85,464.04l-67.52-.22c-.24-.22-.23-.88-.06-1.76.29-1.55,1.04-3.8,1.68-5.63.18-.52.36-1.02.51-1.45.23-.65.4-1.16.48-1.45,1.52-5.63,3.63-11.6,6.37-17.39.78-1.65,1.62-3.29,2.51-4.91s1.83-3.2,2.82-4.75c2.48-3.87,7.14-12.92,10.72-15.06,1.8-1.09,3.6-.91,5.36.15,2.51.82,4.67,2.43,5.79,3.26,1.28.94,5.91,4.74,8.22,6.95,13.64,13,19.13,26.38,23.13,42.26Z"/>
      <path class="st3" d="M376.82,422.07c14.09,12.03,20.03,26.09,24.02,41.96l-67.52-.22c-.24-.22-.23-.88-.06-1.76.29-1.55,1.04-3.8,1.68-5.63.18-.52.36-1.02.51-1.45.23-.65.4-1.16.48-1.45,1.68,1.51,2.02,3.16,4.8,3.87,2.38.61,20.52,1.1,24.05,1.06,16.81-.16,19.17-3.34,14.95-16.29-.08-.23-.16-.48-.24-.74-.02-.05-.03-.1-.05-.15-2.42-7.35-8.72-25.5-15.73-29.71,2.51.82,4.67,2.43,5.79,3.26,1.28.94,4.89,5.16,7.32,7.24Z"/>
      <path class="st8" d="M379.44,441.28s.03.1.05.15c.08.26.17.51.24.74,4.22,12.95,1.86,16.12-14.95,16.29-3.53.03-21.66-.45-24.05-1.06-2.78-.71-3.12-2.36-4.8-3.87,1.52-5.63,3.63-11.6,6.37-17.39.78-1.65,1.62-3.29,2.51-4.91s1.83-3.2,2.82-4.75c2.48-3.87,5.3-7.51,8.47-10.72,13.37-2.87,20.45,16.75,23.34,25.52Z"/>
      <path class="st8" d="M359.79,411.13c-1.14.15-2.68,3.61-3.69,4.63-3.17,3.21-5.99,6.85-8.47,10.72,2.48-3.87,7.14-12.92,10.72-15.06,1.8-1.09,3.6-.91,5.36.15-1.25-.41-2.58-.62-3.92-.44Z"/>
      <path class="st8" d="M379.44,441.28c-2.89-8.77-9.96-28.39-23.34-25.52,1.01-1.02,2.54-4.48,3.69-4.63,1.34-.18,2.68.03,3.92.44,7.01,4.21,13.31,22.37,15.73,29.71Z"/>
    </g>
    <g>
      <path class="st0" d="M505.68,475.45c-.32-.04-.56-.05-.74-.03-.3-.06-.72-.14-1.25-.22.53.08.95.16,1.25.22.17-.02.42,0,.74.03Z"/>
      <path class="st5" d="M531.18,479.15c1.88-1.34.73-8.88-.16-12.12-8.42-30.78-7.05-30.13-36.75-44.01-7.58-3.54-8.29-3.5-12.57,4.99l-7.61,24.76,8.24,21.82c18.82,1.93,41.46,6.62,47.67,5.29M528.86,471.69c.12.54.22,1.04.3,1.5.06.34,1.3,4.85,1.12,5.05-.34.35-.89-2.6-1.07-2.33-.08.12-.34.15-.77.12-.14-.01-.3-.03-.48-.05s-.37-.06-.58-.1c-.62-.11-.85,3.35-1.71,3.14-.57-.14-.74.14-1.39-.03-.65-.18-1.34-.37-2.05-.57-1.42-.4-2.09.3-3.62-.16-1.15-.34-2.11.04-3.24-.29-.38-.11-.75-.22-1.12-.33-1.85-.54-3.59-1.04-5.08-1.43-.3-.08-.58-.15-.86-.22-1.09-.27-2-.47-2.63-.55-.32-.04-.56-.05-.74-.03-.3-.06-.72-.14-1.25-.22-.18-.03-.36-.06-.56-.09-.59-.09-1.27-.19-2.02-.29s-1.56-.21-2.41-.33c-.57-.08-1.16-.15-1.75-.23-.3-.04-.6-.08-.9-.12-.61-.08-1.22-.16-1.83-.24-5.2-.69-10.32-1.38-10.7-1.7-.32-.26-.72-.96-1.17-1.93-.15-.32-.31-.68-.46-1.06-.24-.57-.48-1.2-.73-1.86-.16-.44-.33-.9-.49-1.37-.25-.71-.49-1.44-.73-2.18-.24-.74-.47-1.48-.68-2.22-.14-.48-.28-.95-.4-1.41-.07-.26-.14-.51-.21-.76-.12-.44-.23-.88-.33-1.29,0-.01,0-.02,0-.03-.42-1.7-.68-3.1-.68-3.83.01-2.25.34-4.8.89-7.46.11-.53.23-1.07.36-1.61.76-3.24,1.82-6.6,3-9.77.79-2.11,1.63-4.14,2.48-6,.67-1.46,1.03-2.67,1.32-3.6.07-.23.14-.45.21-.65.13-.4.26-.72.42-.98.31-.51.72-.73,1.45-.65.37.04.82.16,1.38.35.84.29,1.94.76,3.39,1.41,4.98,2.24,9.92,5.58,14.44,9.53,3.3,2.88,8.42,3.77,11.13,7.09.77.95,1.52,1.9,2.23,2.87.36.48.7.96,1.04,1.45,2.03,2.9,1.7,8.12,2.99,10.94.05.1.1.21.15.34s.11.27.18.43c.13.32.27.69.43,1.11.08.21.16.43.25.67.17.47-1.67-4.98-1.47-4.43.19.55.4,1.13.61,1.73.2.58.41,1.19.61,1.81.13.38.26.77.39,1.16.21.64.42,1.3.63,1.96.11.34.22.69.33,1.04.97,3.12,1.87,6.27,2.4,8.7Z"/>
      <path class="st3" d="M530.27,478.24c-.56.59-.59.51-.98.58-.14.03-1.01.16-1.44.22-.35.05.43-.06-.35.05-1.62.24-9.19-.51-9.39-.54-.62-.11,8.78-.14,7.79.2-.57.19-.98.41-1.63.24-.65-.18-.94.02-2.58-.1-.92-.07-1.41-.18-2.68-.25s-2.47-.34-3.65-.67c-.38-.11-.75-.22-1.12-.33-1.85-.54-3.59-1.04-5.08-1.43-.3-.08-.58-.15-.86-.22-1.09-.27-2-.47-2.63-.55-.32-.04-.56-.05-.74-.03-.3-.06-.72-.14-1.25-.22-.18-.03-.36-.06-.56-.09-.59-.09-1.27-.19-2.02-.29s-1.56-.21-2.41-.33c-.57-.08-1.16-.15-1.75-.23-.3-.04-.6-.08-.9-.12-.61-.08-1.22-.16-1.83-.24-5.2-.69-10.32-1.38-10.7-1.7-.32-.26-.72-.96-1.17-1.93-.15-.32-.31-.68-.46-1.06-.24-.57-.48-1.2-.73-1.86-.16-.44-.33-.9-.49-1.37-.25-.71-.49-1.44-.73-2.18-.24-.74-.47-1.48-.68-2.22-.14-.48-.28-.95-.4-1.41-.07-.26-.14-.51-.21-.76-.12-.44-.23-.88-.33-1.29,0-.01,0-.02,0-.03-.42-1.7-.68-3.1-.68-3.83l9.53,6.18c3.58,1.56,23.9,5.67,25.67-.56,1.33-4.68-15.96-35.87-28.46-30.46.67-1.46,1.03-2.67,1.32-3.6.07-.23.14-.45.21-.65.13-.4.26-.72.42-.98.31-.51.72-.73,1.45-.65.37.04.82.16,1.38.35.84.29,1.94.76,3.39,1.41,4.98,2.24,10.79,3.77,15.32,7.72,3.3,2.88,7.55,5.58,10.25,8.9.77.95,1.52,1.9,2.23,2.87.36.48.7.96,1.04,1.45,2.03,2.9,3.28,12.29,4.58,15.11.05.1-1.49-3.96-1.43-3.83s.11.27.18.43c.13.32.27.69.43,1.11.08.21.16.43.25.67.17.47-.44-1.21-.25-.67.19.55-.82-2.64-.62-2.03.2.58.41,1.19.61,1.81.13.38.26.77.39,1.16.21.64.42,1.3.63,1.96.11.34.22.69.33,1.04.97,3.12,1.87,6.27,2.4,8.7.12.54.22,1.04.3,1.5.06.34,1.33,4.82,1.12,5.05Z"/>
      <path class="st8" d="M512.81,459.87c-1.77,6.23-22.09,2.12-25.67.56l-9.53-6.18c.01-2.25.34-4.8.89-7.46.11-.53.23-1.07.36-1.61.76-3.24,1.82-6.6,3-9.77.79-2.11,1.63-4.14,2.48-6,12.5-5.42,29.79,25.78,28.46,30.46Z"/>
    </g>
    <g>
      <path class="st0" d="M157.33,440.3c-1.36,2.86-2.53,5.58-3.45,7.7.95-2.17,2.11-4.89,3.45-7.7Z"/>
      <path class="st0" d="M188.19,437.72s.03.06.05.09c0-.01-.03-.05-.05-.09,0,0,0,0,0,0,0,0,0,0,0,.01Z"/>
      <path class="st0" d="M152.94,450.02c.12-.2.22-.38.29-.54.02-.04.04-.09.06-.13-.02.04-.04.09-.06.13-.07.16-.17.34-.29.54Z"/>
      <path class="st0" d="M174.31,423.37c2.47.05,4.08,1.04,5.43,2.51-1.63-1.39-3.35-2.22-5.43-2.51Z"/>
      <path class="st0" d="M188.24,437.81s0,0-.05-.09c1.85,3.27,7.82,14.18,6.42,18.83,1.37-4.61-4.49-15.36-6.37-18.74Z"/>
      <path class="st5" d="M202.2,463.6l.02-3.7c-5.01-1.75-4.95-12.69-6.12-15.62-3.98-9.97-11.83-26.28-25.25-26.11-11.35.15-27.2,36.69-22.64,40.99,1.93,1.82,37.83,3.37,53.99,4.43ZM194.34,457.19c-.05.1-.1.19-.16.28-.05.07-.11.13-.16.19-.05.06-.09.12-.15.18-.08.08-.17.14-.26.21-.04.03-.08.07-.12.1-.14.09-.29.17-.46.24-1.86.78-42.01-2.3-42.65-4.29-.12-.38,1.72-2.68,2.56-4.08.12-.2.22-.38.29-.54.02-.04.04-.09.06-.13.19-.42.38-.86.6-1.35.95-2.17,2.11-4.89,3.45-7.7.03-.06.06-.12.09-.18.27-.56.55-1.13.83-1.7.28-.56.57-1.12.86-1.68.02-.04.04-.07.06-.11,3.54-6.75,8-13.18,12.79-13.38.84-.04,1.61.02,2.35.12,2.47.05,4.08,1.04,5.43,2.51.92.78,1.81,1.75,2.72,2.89.44.43,1.1,1.34,1.81,2.43,0,0,0,0,0,0,1.91,2.75,2.3,3.67,3.91,6.51,0,0,0,0,0,.01,1.85,3.27,7.82,14.18,6.42,18.83,0,.02-.01.04-.02.05-.05.15-.1.29-.16.43-.02.05-.06.1-.09.15Z"/>
      <polygon class="st5" points="188.18 437.71 188.18 437.71 188.19 437.72 188.18 437.71"/>
      <path class="st8" d="M188.18,437.72c-.35-.62-2.28-4.02-3.92-6.52,0,0,0,0,0,0,1.91,2.75,2.3,3.67,3.91,6.51,0,0,0,0,0,0,0,0,0,0,0,0Z"/>
      <path class="st8" d="M181.89,429.06c.41,3.28-.21,8.16-.77,10.13-.62,2.18-2.45,5.24-3.61,7.06-4.4,6.94-16.04,6.76-24.29,3.23.02-.04.04-.09.06-.13.19-.42.38-.86.6-1.35.93-2.13,2.1-4.85,3.45-7.7.03-.06.06-.12.09-.18.27-.56.55-1.13.83-1.7.28-.56.57-1.12.86-1.68.02-.04.04-.07.06-.11,3.54-6.75,8-13.18,12.79-13.38.84-.04,1.61.02,2.35.12,2.08.28,3.8,1.11,5.43,2.51.92.78,1.81,1.75,2.72,2.89-.42-.41-.65-.4-.56.29Z"/>
      <path class="st3" d="M188.19,437.72s0,0,0-.01c0,0,0,0,0,.01.05.08.06.11.05.09-.02-.03-.03-.06-.05-.09Z"/>
      <path class="st3" d="M194.02,457.66c-.05.06-.09.12-.15.18-.08.08-.17.14-.26.21-.04.03-.08.07-.12.1-.14.09-.29.17-.46.24-1.86.78-42.01-2.3-42.65-4.29-.12-.38,1.72-2.68,2.56-4.08.12-.2.22-.38.29-.54,8.25,3.53,19.9,3.71,24.29-3.23,1.15-1.82,2.99-4.88,3.61-7.06.56-1.97,1.18-6.85.77-10.13-.09-.69.15-.7.56-.29.44.43,1.1,1.34,1.81,2.43,1.64,2.5,3.57,5.91,3.92,6.52.03.05.05.08.05.09,1.88,3.38,7.75,14.13,6.37,18.74,0,.02-.01.04-.02.05-.05.15-.1.29-.16.43-.02.05-.06.1-.09.15-.05.1-.1.19-.16.28-.05.07-.11.13-.16.19Z"/>
    </g>
    <g>
      <path class="st8" d="M311.54,433.1c7.78,24.4-2.62,19.18-20.36,18.25-7.02-.37-16.42,3.56-19.05-5.57,5.05-11.53,11.05-21.05,18.58-30.35,1.73-1.52,4.85-3.68,5.94-4.05,5.71,2,12.89,15.43,14.9,21.71Z"/>
      <path class="st8" d="M296.75,411.34s.03,0,.04.01l-.13.02s.06-.03.09-.03Z"/>
      <path class="st5" d="M331.91,467.17l.55-10.96s0,0,0,0c-2.86-5.51-3.86-11.75-6.28-17.56-3.07-7.35-17.48-33.03-25.31-31.47-3.12.62-4.82,1.22-5.66,1.77-.99.41-1.97,1.03-2.85,1.75-15.58,10.13-21.31,28.98-28.31,45.79-.38-.08-.77,3.16-1.41,2.77l.24,5.68c21.89-1.2,46.09-.4,69.03,2.24ZM328,463.19c-.28-.14-.61-.26-.96-.38-.71-.24-1.57-.45-2.55-.63-1.47-.27-3.21-.48-5.16-.64-1.3-.11-2.69-.19-4.15-.25-.73-.03-1.48-.06-2.24-.08-2.29-.07-4.72-.1-7.22-.11-1.67,0-3.36,0-5.07.02-2.56.02-5.14.07-7.67.11-1.69.03-3.36.07-4.99.1s-3.22.07-4.74.1c-2.29.04-4.44.08-6.38.09-5.18.03-8.89-.1-9.83-.61-.46-.25-.51-1.05-.29-2.15.12-.63.33-1.36.6-2.15.13-.39.28-.8.44-1.22.16-.42.33-.84.5-1.27s.36-.86.55-1.29c.28-.65.57-1.29.85-1.91,1.14-2.47,2.21-4.58,2.45-5.12,5.05-11.53,11.05-21.05,18.58-30.35,1.73-1.52,4.85-3.68,5.94-4.05,0,0,0,0,0,0h.03s.06-.03.09-.04c.01,0,.03,0,.04.01l2.97-.46c.94.12,1.08.32,1.48.58.89.59,4.92,3.68,8.87,7.62,3.34,3.04,6.11,6.58,7.62,10.05,0,0,0,0,0,0,.74,1.71,2.07,3.3,2.73,5.34,3.44,4.18,12.53,27.09,7.54,28.7Z"/>
      <path class="st3" d="M328,463.19c-.28-.14-.61-.26-.96-.38-.71-.24-1.57-.45-2.55-.63-1.47-.27-3.21-.48-5.16-.64-1.3-.11-2.69-.19-4.15-.25-.73-.03-1.48-.06-2.24-.08-2.29-.07-4.72-.1-7.22-.11-1.67,0-3.36,0-5.07.02-2.56.02-5.14.07-7.67.11-1.69.03-3.36.07-4.99.1s-3.22.07-4.74.1c-2.29.04-4.44.08-6.38.09-5.18.03-8.89-.1-9.83-.61-.46-.25-.51-1.05-.29-2.15.12-.63.33-1.36.6-2.15.13-.39.28-.8.44-1.22.16-.42.33-.84.5-1.27s.36-.86.55-1.29c.28-.65.57-1.29.85-1.91,1.14-2.47,2.21-4.58,2.45-5.12,2.63,9.13,12.03,5.2,19.05,5.57,17.74.93,28.14,6.15,20.36-18.25-2-6.28-9.19-19.71-14.9-21.71,0,0,0,0,0,0h.03s.13-.03.13-.03l2.97-.46c.94.12,1.08.32,1.48.58.89.59,4.92,3.68,8.87,7.62,3.11,3.09,6.16,6.71,7.62,10.05,0,0,0,0,0,0,.74,1.71,2.07,3.3,2.73,5.34,3.44,4.18,12.53,27.09,7.54,28.7Z"/>
    </g>
  </g>
  <rect class="st4" x="37.78" y="273.55" width="31.3" height="53.68"/>
</svg>